<?xml version="1.0" encoding="UTF-8" standalone="no"?>
<svg
   xmlns:dc="http://purl.org/dc/elements/1.1/"
   xmlns:cc="http://creativecommons.org/ns#"
   xmlns:rdf="http://www.w3.org/1999/02/22-rdf-syntax-ns#"
   xmlns:svg="http://www.w3.org/2000/svg"
   xmlns="http://www.w3.org/2000/svg"
   xmlns:xlink="http://www.w3.org/1999/xlink"
   xmlns:sodipodi="http://sodipodi.sourceforge.net/DTD/sodipodi-0.dtd"
   xmlns:inkscape="http://www.inkscape.org/namespaces/inkscape"
   width="739.85742"
   height="487.22693"
   viewBox="0 0 739.85743 487.22694"
   id="svg2"
   version="1.1"
   inkscape:version="0.48.4 r9939"
   sodipodi:docname="oprange-take3.svg">
  <sodipodi:namedview
     pagecolor="#ffffff"
     bordercolor="#666666"
     borderopacity="1"
     objecttolerance="10"
     gridtolerance="10"
     guidetolerance="10"
     inkscape:pageopacity="0"
     inkscape:pageshadow="2"
     inkscape:window-width="1600"
     inkscape:window-height="824"
     id="namedview172"
     showgrid="false"
     inkscape:zoom="1.0729879"
     inkscape:cx="225.35124"
     inkscape:cy="277.93328"
     inkscape:window-x="0"
     inkscape:window-y="24"
     inkscape:window-maximized="1"
     inkscape:current-layer="layer29"
     fit-margin-top="0"
     fit-margin-left="0"
     fit-margin-right="0"
     fit-margin-bottom="0" />
  <metadata
     id="metadata176">
    <rdf:RDF>
      <cc:Work
         rdf:about="">
        <dc:format>image/svg+xml</dc:format>
        <dc:type
           rdf:resource="http://purl.org/dc/dcmitype/StillImage" />
        <dc:title>Gnuplot</dc:title>
      </cc:Work>
    </rdf:RDF>
  </metadata>
  <defs
     id="defs174" />
  <title
     id="title4">Gnuplot</title>
  <desc
     id="desc6">Produced by GNUPLOT 4.6 patchlevel 3 </desc>
  <g
     inkscape:groupmode="layer"
     id="layer1"
     inkscape:label="Base"
     style="display:inline">
    <g
       id="gnuplot_canvas"
       transform="translate(139.85744,7.2269271)">
      <rect
         x="0"
         y="0"
         width="600"
         height="480"
         id="rect9"
         style="fill:none" />
      <defs
         id="defs11">
        <circle
           id="gpDot"
           r="0.5"
           cx="0"
           cy="0"
           sodipodi:cx="0"
           sodipodi:cy="0"
           sodipodi:rx="0.5"
           sodipodi:ry="0.5"
           style="stroke-width:0.5" />
        <path
           id="gpPt0"
           d="M -1,0 H 1 M 0,-1 v 2"
           inkscape:connector-curvature="0"
           style="stroke:currentColor;stroke-width:0.222" />
        <path
           id="gpPt1"
           d="M -1,-1 1,1 M 1,-1 -1,1"
           inkscape:connector-curvature="0"
           style="stroke:currentColor;stroke-width:0.222" />
        <path
           id="gpPt2"
           d="M -1,0 1,0 M 0,-1 0,1 m -1,-2 2,2 m -2,0 2,-2"
           inkscape:connector-curvature="0"
           style="stroke:currentColor;stroke-width:0.222" />
        <rect
           id="gpPt3"
           x="-1"
           y="-1"
           width="2"
           height="2"
           style="stroke:currentColor;stroke-width:0.222" />
        <rect
           id="gpPt4"
           x="-1"
           y="-1"
           width="2"
           height="2"
           style="fill:currentColor;stroke:currentColor;stroke-width:0.222" />
        <circle
           id="gpPt5"
           cx="0"
           cy="0"
           r="1"
           sodipodi:cx="0"
           sodipodi:cy="0"
           sodipodi:rx="1"
           sodipodi:ry="1"
           style="stroke:currentColor;stroke-width:0.222" />
        <use
           xlink:href="#gpPt5"
           id="gpPt6"
           style="fill:currentColor;stroke:none"
           x="0"
           y="0"
           width="600"
           height="480" />
        <path
           id="gpPt7"
           d="m 0,-1.33 -1.33,2 2.66,0 z"
           inkscape:connector-curvature="0"
           style="stroke:currentColor;stroke-width:0.222" />
        <use
           xlink:href="#gpPt7"
           id="gpPt8"
           style="fill:currentColor;stroke:none"
           x="0"
           y="0"
           width="600"
           height="480" />
        <use
           xlink:href="#gpPt7"
           id="gpPt9"
           transform="scale(-1,-1)"
           style="stroke:currentColor"
           x="0"
           y="0"
           width="600"
           height="480" />
        <use
           xlink:href="#gpPt9"
           id="gpPt10"
           style="fill:currentColor;stroke:none"
           x="0"
           y="0"
           width="600"
           height="480" />
        <use
           xlink:href="#gpPt3"
           id="gpPt11"
           transform="matrix(0.70710678,0.70710678,-0.70710678,0.70710678,0,0)"
           style="stroke:currentColor"
           x="0"
           y="0"
           width="600"
           height="480" />
        <use
           xlink:href="#gpPt11"
           id="gpPt12"
           style="fill:currentColor;stroke:none"
           x="0"
           y="0"
           width="600"
           height="480" />
      </defs>
      <g
         style="color:#ffffff;fill:none;stroke:currentColor;stroke-width:2;stroke-linecap:butt;stroke-linejoin:miter"
         id="g27" />
      <g
         style="color:#000000;fill:none;stroke:currentColor;stroke-width:2;stroke-linecap:butt;stroke-linejoin:miter;display:inline"
         id="g29">
        <path
           d="m 71.9,356.4 9,0 m 485.1,0 -9,0 h 0.01"
           id="path31"
           inkscape:connector-curvature="0"
           style="stroke:#000000" />
        <g
           transform="translate(63.6,360.9)"
           style="font-size:15px;text-anchor:end;fill:#000000;stroke:none;font-family:Arial"
           id="g33">
          <text
             id="text35">
            <tspan
               style="font-size:20px"
               id="tspan4046">-1.5</tspan>
          </text>
        </g>
        <path
           d="m 71.9,262 9,0 m 485.1,0 -9,0 h 0.01"
           id="path37"
           inkscape:connector-curvature="0"
           style="stroke:#000000" />
        <g
           transform="translate(63.6,266.5)"
           style="font-size:15px;text-anchor:end;fill:#000000;stroke:none;font-family:Arial"
           id="g39">
          <text
             id="text41">
            <tspan
               style="font-size:20px"
               id="tspan4044">-1</tspan>
          </text>
        </g>
        <path
           d="m 71.9,167.7 9,0 m 485.1,0 -9,0 h 0.01"
           id="path43"
           inkscape:connector-curvature="0"
           style="stroke:#000000" />
        <g
           transform="translate(63.6,172.2)"
           style="font-size:15px;text-anchor:end;fill:#000000;stroke:none;font-family:Arial"
           id="g45">
          <text
             id="text47">
            <tspan
               style="font-size:20px"
               id="tspan4042">-0.5</tspan>
          </text>
        </g>
        <path
           d="m 71.9,73.3 9,0 m 485.1,0 -9,0 h 0.01"
           id="path49"
           inkscape:connector-curvature="0"
           style="stroke:#000000" />
        <g
           transform="translate(63.6,77.8)"
           style="font-size:15px;text-anchor:end;fill:#000000;stroke:none;font-family:Arial"
           id="g51">
          <text
             id="text53">0</text>
        </g>
        <path
           d="m 71.9,422.4 0,-9 m 0,-396.7 0,9 h 0.01"
           id="path55"
           inkscape:connector-curvature="0"
           style="stroke:#000000" />
        <g
           transform="translate(71.9,444.9)"
           style="font-size:15px;text-anchor:middle;fill:#000000;stroke:none;font-family:Arial"
           id="g57">
          <text
             id="text59">
            <tspan
               style="font-size:20px"
               id="tspan4048">1</tspan>
          </text>
        </g>
        <path
           d="m 121.5,422.4 0,-4.5 m 0,-401.2 0,4.5 m 29,401.2 0,-4.5 m 0,-401.2 0,4.5 m 20.6,401.2 0,-4.5 m 0,-401.2 0,4.5 m 15.9,401.2 0,-4.5 m 0,-401.2 0,4.5 m 13.1,401.2 0,-4.5 m 0,-401.2 0,4.5 m 11,401.2 0,-4.5 m 0,-401.2 0,4.5 m 9.5,401.2 0,-4.5 m 0,-401.2 0,4.5 m 8.5,401.2 0,-4.5 m 0,-401.2 0,4.5 m 7.5,401.2 0,-9 m 0,-396.7 0,9 h 0.01"
           id="path61"
           inkscape:connector-curvature="0"
           style="stroke:#000000" />
        <g
           transform="translate(236.6,444.9)"
           style="font-size:15px;text-anchor:middle;fill:#000000;stroke:none;font-family:Arial"
           id="g63">
          <text
             id="text65">
            <tspan
               style="font-size:20px"
               id="tspan4050">10</tspan>
          </text>
        </g>
        <path
           d="m 286.2,422.4 0,-4.5 m 0,-401.2 0,4.5 m 29,401.2 0,-4.5 m 0,-401.2 0,4.5 m 20.6,401.2 0,-4.5 m 0,-401.2 0,4.5 m 15.9,401.2 0,-4.5 m 0,-401.2 0,4.5 m 13.1,401.2 0,-4.5 m 0,-401.2 0,4.5 m 11,401.2 0,-4.5 m 0,-401.2 0,4.5 m 9.5,401.2 0,-4.5 m 0,-401.2 0,4.5 m 8.5,401.2 0,-4.5 m 0,-401.2 0,4.5 m 7.5,401.2 0,-9 m 0,-396.7 0,9 h 0.01"
           id="path67"
           inkscape:connector-curvature="0"
           style="stroke:#000000" />
        <g
           transform="translate(401.3,444.9)"
           style="font-size:15px;text-anchor:middle;fill:#000000;stroke:none;font-family:Arial"
           id="g69">
          <text
             id="text71">
            <tspan
               style="font-size:20px"
               id="tspan4052">100</tspan>
          </text>
        </g>
        <path
           d="m 450.9,422.4 0,-4.5 m 0,-401.2 0,4.5 m 29,401.2 0,-4.5 m 0,-401.2 0,4.5 m 20.6,401.2 0,-4.5 m 0,-401.2 0,4.5 m 15.9,401.2 0,-4.5 m 0,-401.2 0,4.5 m 13.1,401.2 0,-4.5 m 0,-401.2 0,4.5 m 11,401.2 0,-4.5 m 0,-401.2 0,4.5 m 9.5,401.2 0,-4.5 m 0,-401.2 0,4.5 m 8.5,401.2 0,-4.5 m 0,-401.2 0,4.5 m 7.5,401.2 0,-9 m 0,-396.7 0,9 h 0.01"
           id="path73"
           inkscape:connector-curvature="0"
           style="stroke:#000000" />
        <g
           transform="translate(566,444.9)"
           style="font-size:15px;text-anchor:middle;fill:#000000;stroke:none;font-family:Arial"
           id="g75">
          <text
             id="text77">
            <tspan
               style="font-size:20px"
               id="tspan4054">1000</tspan>
          </text>
        </g>
        <path
           d="m 71.9,16.7 0,405.7 494.1,0 0,-405.7 -494.1,0 z m 0,0 h 0.01"
           id="path79"
           inkscape:connector-curvature="0"
           style="stroke:#000000" />
        <g
           transform="matrix(0,-1,1,0,588.4,219.6)"
           style="font-size:15px;text-anchor:middle;fill:#000000;stroke:none;font-family:Arial"
           id="g85">
          <text
             id="text87" />
        </g>
        <g
           transform="translate(318.9,463.9)"
           style="font-size:15px;text-anchor:middle;fill:#000000;stroke:none;font-family:Arial"
           id="g89">
          <text
             id="text91">
            <tspan
               style="font-size:20px"
               id="tspan4056">Link rate (Mbps)</tspan>
          </text>
        </g>
        <g
           transform="translate(318.9,30.2)"
           style="font-size:15px;text-anchor:middle;fill:#000000;stroke:none;font-family:Arial"
           id="g93">
          <text
             id="text95" />
        </g>
        <g
           transform="translate(318.9,30.3)"
           style="font-size:15px;text-anchor:middle;fill:#000000;stroke:none;font-family:Arial"
           id="g97">
          <text
             id="text99" />
        </g>
        <g
           transform="translate(22.1,475.5)"
           style="font-size:15px;text-anchor:start;fill:#000000;stroke:none;font-family:Arial"
           id="g101">
          <text
             id="text103" />
        </g>
      </g>
      <g
         id="gnuplot_plot_7">
        <title
           id="title148">gnuplot_plot_7</title>
      </g>
      <g
         style="color:#000000;fill:none;stroke:currentColor;stroke-width:2;stroke-linecap:butt;stroke-linejoin:miter"
         id="g168">
        <path
           d="m 71.9,16.7 0,405.7 494.1,0 0,-405.7 -494.1,0 z m 0,0 h 0.01"
           id="path170"
           inkscape:connector-curvature="0"
           style="stroke:#000000" />
      </g>
    </g>
    <text
       transform="translate(6.3122619e-5,0)"
       xml:space="preserve"
       style="font-size:40px;font-style:normal;font-weight:normal;line-height:125%;letter-spacing:0px;word-spacing:0px;fill:#000000;fill-opacity:1;stroke:none;display:inline;font-family:Sans"
       x="8.3877888"
       y="208.56583"
       id="text3141"
       sodipodi:linespacing="125%"><tspan
         sodipodi:role="line"
         id="tspan3143"
         x="8.3877888"
         y="208.56583"
         style="font-size:20px">Objective Function</tspan><tspan
         sodipodi:role="line"
         x="8.3877888"
         y="233.56583"
         style="font-size:20px"
         id="tspan3145">(Normalized)</tspan></text>
  </g>
  <g
     inkscape:groupmode="layer"
     id="layer23"
     inkscape:label="omniscient"
     style="display:inline">
    <text
       xml:space="preserve"
       style="font-size:40px;font-style:normal;font-weight:normal;line-height:125%;letter-spacing:0px;word-spacing:0px;fill:#000000;fill-opacity:1;stroke:none;display:inline;font-family:Sans"
       x="432.67377"
       y="98.601311"
       id="text3868"
       sodipodi:linespacing="125%"><tspan
         sodipodi:role="line"
         id="tspan3870"
         x="432.67377"
         y="98.601311"
         style="font-size:20px">Ideal</tspan></text>
    <g
       transform="translate(139.85744,7.2269267)"
       id="g164"
       style="color:#d6d645;fill:none;stroke:#000000;stroke-width:3;stroke-linecap:butt;stroke-linejoin:miter;stroke-opacity:1;display:inline">
      <path
         style="stroke:#000000;stroke-width:3;stroke-opacity:1"
         inkscape:connector-curvature="0"
         id="path166"
         d="m 71.9,73.3 0.1,0 0.1,0 0.1,0 0.1,0 0.1,0 0.1,0 0.1,0 0.1,0 0.1,0 0.1,0 0.1,0 0.1,0 0.1,0 0.1,0 0.1,0 0.1,0 0.1,0 0.1,0 0.1,0 0.1,0 0.1,0 0.1,0 0.1,0 0.1,0 0.1,0 0.1,0 0.1,0 0.1,0 0.1,0 0.1,0 0.1,0 0.1,0 0.1,0 0.1,0 0.1,0 0.1,0 0.1,0 0.1,0 0.1,0 0.1,0 0.1,0 0.1,0 0.1,0 0.1,0 0.1,0 0.1,0 0.1,0 0.1,0 0.1,0 0.1,0 0.1,0 0.1,0 0.1,0 0.1,0 0.1,0 0.1,0 0.1,0 0.1,0 0.1,0 0.1,0 0.1,0 0.1,0 0.1,0 0.1,0 0.1,0 0.1,0 0.1,0 0.1,0 0.1,0 0.1,0 0.1,0 0.1,0 0.1,0 0.1,0 0.1,0 0.1,0 0.1,0 0.1,0 0.1,0 0.1,0 0.1,0 0.1,0 0.1,0 0.1,0 0.1,0 0.1,0 0.1,0 0.1,0 0.1,0 0.1,0 0.1,0 0.1,0 0.1,0 0.1,0 0.1,0 0.1,0 0.1,0 0.1,0 0.1,0 0.1,0 0.1,0 0.1,0 0.1,0 0.1,0 0.1,0 0.1,0 0.1,0 0.1,0 0.1,0 0.1,0 0.1,0 0.1,0 0.1,0 0.1,0 0.1,0 0.1,0 0.1,0 0.1,0 0.1,0 0.1,0 0.1,0 0.1,0 0.1,0 0.1,0 0.1,0 0.1,0 0.1,0 0.1,0 0.1,0 0.1,0 0.1,0 0.1,0 0.1,0 0.1,0 0.1,0 0.1,0 0.1,0 0.1,0 0.1,0 0.1,0 0.1,0 0.1,0 0.1,0 0.1,0 0.1,0 0.1,0 0.1,0 0.1,0 0.1,0 0.1,0 0.1,0 0.1,0 0.1,0 0.1,0 0.1,0 0.1,0 0.1,0 0.1,0 0.1,0 0.1,0 0.1,0 0.1,0 0.1,0 0.1,0 0.1,0 0.1,0 0.1,0 0.1,0 0.1,0 0.1,0 0.1,0 0.1,0 0.1,0 0.1,0 0.1,0 0.1,0 0.1,0 0.1,0 0.1,0 0.1,0 0.1,0 0.1,0 0.1,0 0.1,0 0.1,0 0.1,0 0.1,0 0.1,0 0.1,0 0.1,0 0.1,0 0.1,0 0.1,0 0.1,0 0.1,0 0.1,0 0.1,0 0.1,0 0.1,0 0.1,0 0.1,0 0.1,0 0.1,0 0.1,0 0.1,0 0.1,0 0.1,0 0.1,0 0.1,0 0.1,0 0.1,0 0.1,0 0.1,0 0.1,0 0.1,0 0.1,0 0.1,0 0.1,0 0.1,0 0.1,0 0.1,0 0.1,0 0.1,0 0.1,0 0.1,0 0.1,0 0.1,0 0.1,0 0.1,0 0.1,0 0.1,0 0.1,0 0.1,0 0.1,0 0.1,0 0.1,0 0.1,0 0.1,0 0.1,0 0.1,0 0.1,0 0.1,0 0.1,0 0.1,0 0.1,0 0.1,0 0.1,0 0.1,0 0.1,0 0.1,0 0.1,0 0.1,0 0.1,0 0.1,0 0.1,0 0.1,0 0.1,0 0.1,0 0.1,0 0.1,0 0.1,0 0.1,0 0.1,0 0.1,0 0.1,0 0.1,0 0.1,0 0.1,0 0.1,0 0.1,0 0.1,0 0.1,0 0.1,0 0.1,0 0.1,0 0.1,0 0.1,0 0.1,0 0.1,0 0.1,0 0.1,0 0.1,0 0.1,0 0.1,0 0.1,0 0.1,0 0.1,0 0.1,0 0.1,0 0.1,0 0.1,0 0.1,0 0.1,0 0.1,0 0.1,0 0.1,0 0.1,0 0.1,0 0.1,0 0.1,0 0.1,0 0.1,0 0.1,0 0.1,0 0.1,0 0.1,0 0.1,0 0.1,0 0.1,0 0.1,0 0.1,0 0.1,0 0.1,0 0.1,0 0.1,0 0.1,0 0.1,0 0.1,0 0.1,0 0.1,0 0.1,0 0.1,0 0.1,0 0.1,0 0.1,0 0.1,0 0.1,0 0.1,0 0.1,0 0.1,0 0.1,0 0.1,0 0.1,0 0.1,0 0.1,0 0.1,0 0.1,0 0.1,0 0.1,0 0.1,0 0.1,0 0.1,0 0.1,0 0.1,0 0.1,0 0.1,0 0.1,0 0.1,0 0.1,0 0.1,0 0.1,0 0.1,0 0.1,0 0.1,0 0.1,0 0.1,0 0.1,0 0.1,0 0.1,0 0.1,0 0.1,0 0.1,0 0.1,0 0.1,0 0.1,0 0.1,0 0.1,0 0.1,0 0.1,0 0.1,0 0.1,0 0.1,0 0.1,0 0.1,0 0.1,0 0.1,0 0.1,0 0.1,0 0.1,0 0.1,0 0.1,0 0.1,0 0.1,0 0.1,0 0.1,0 0.1,0 0.1,0 0.1,0 0.1,0 0.1,0 0.1,0 0.1,0 0.1,0 0.1,0 0.1,0 0.1,0 0.1,0 0.1,0 0.1,0 0.1,0 0.1,0 0.1,0 0.1,0 0.1,0 0.1,0 0.1,0 0.1,0 0.1,0 0.1,0 0.1,0 0.1,0 0.1,0 0.1,0 0.1,0 0.1,0 0.1,0 0.1,0 0.1,0 0.1,0 0.1,0 0.1,0 0.1,0 0.1,0 0.1,0 0.1,0 0.1,0 0.1,0 0.1,0 0.1,0 0.1,0 0.1,0 0.1,0 0.1,0 0.1,0 0.1,0 0.1,0 0.1,0 0.1,0 0.1,0 0.1,0 0.1,0 0.1,0 0.1,0 0.1,0 0.1,0 0.1,0 0.1,0 0.1,0 0.1,0 0.1,0 0.1,0 0.1,0 0.1,0 0.1,0 0.1,0 0.1,0 0.1,0 0.1,0 0.1,0 0.1,0 0.1,0 0.1,0 0.1,0 0.1,0 0.1,0 0.1,0 0.1,0 0.1,0 0.1,0 0.1,0 0.1,0 0.1,0 0.1,0 0.1,0 0.1,0 0.1,0 0.1,0 0.1,0 0.1,0 0.1,0 0.1,0 0.1,0 0.1,0 0.1,0 0.1,0 0.1,0 0.1,0 0.1,0 0.1,0 0.1,0 0.1,0 0.1,0 0.1,0 0.1,0 0.1,0 0.1,0 0.1,0 0.1,0 0.1,0 0.1,0 0.1,0 0.1,0 0.1,0 0.1,0 0.1,0 0.1,0 0.1,0 0.1,0 0.1,0 0.1,0 0.1,0 0.1,0 0.1,0 0.1,0 0.1,0 0.1,0 0.1,0 0.1,0 0.1,0 0.1,0 0.1,0 0.1,0 0.1,0 0.1,0 0.1,0 0.1,0 0.1,0 0.1,0 0.1,0 0.1,0 0.1,0 0.1,0 0.1,0 0.1,0 0.1,0 0.1,0 0.1,0 0.1,0 0.1,0 0.1,0 0.1,0 0.1,0 0.1,0 0.1,0 0.1,0 0.1,0 0.1,0 0.1,0 0.1,0 0.1,0 0.1,0 0.1,0 0.1,0 0.1,0 0.1,0 0.1,0 0.1,0 0.1,0 0.1,0 0.1,0 0.1,0 0.1,0 0.1,0 0.1,0 0.1,0 0.1,0 0.1,0 0.1,0 0.1,0 0.1,0 0.1,0 0.1,0 0.1,0 0.1,0 0.1,0 0.1,0 0.1,0 0.1,0 0.1,0 0.1,0 0.1,0 0.1,0 0.1,0 0.1,0 0.1,0 0.1,0 0.1,0 0.1,0 0.1,0 0.1,0 0.1,0 0.1,0 0.1,0 0.1,0 0.1,0 0.1,0 0.1,0 0.1,0 0.1,0 0.1,0 0.1,0 0.1,0 0.1,0 0.1,0 0.1,0 0.1,0 0.1,0 0.1,0 0.1,0 0.1,0 0.1,0 0.1,0 0.1,0 0.1,0 0.1,0 0.1,0 0.1,0 0.1,0 0.1,0 0.1,0 0.1,0 0.1,0 0.1,0 0.1,0 0.1,0 0.1,0 0.1,0 0.1,0 0.1,0 0.1,0 0.1,0 0.1,0 0.1,0 0.1,0 0.1,0 0.1,0 0.1,0 0.1,0 0.1,0 0.1,0 0.1,0 0.1,0 0.1,0 0.1,0 0.1,0 0.1,0 0.1,0 0.1,0 0.1,0 0.1,0 0.1,0 0.1,0 0.1,0 0.1,0 0.1,0 0.1,0 0.1,0 0.1,0 0.1,0 0.1,0 0.1,0 0.1,0 0.1,0 0.1,0 0.1,0 0.1,0 0.1,0 0.1,0 0.1,0 0.1,0 0.1,0 0.1,0 0.1,0 0.1,0 0.1,0 0.1,0 0.1,0 0.1,0 0.1,0 0.1,0 0.1,0 0.1,0 0.1,0 0.1,0 0.1,0 0.1,0 0.1,0 0.1,0 0.1,0 0.1,0 0.1,0 0.1,0 0.1,0 0.1,0 0.1,0 0.1,0 0.1,0 0.1,0 0.1,0 0.1,0 0.1,0 0.1,0 0.1,0 0.1,0 0.1,0 0.1,0 0.1,0 0.1,0 0.1,0 0.1,0 0.1,0 0.1,0 0.1,0 0.1,0 0.1,0 0.1,0 0.1,0 0.1,0 0.1,0 0.1,0 0.1,0 0.1,0 0.1,0 0.1,0 0.1,0 0.1,0 0.1,0 0.1,0 0.1,0 0.1,0 0.1,0 0.1,0 0.1,0 0.1,0 0.1,0 0.1,0 0.1,0 0.1,0 0.1,0 0.1,0 0.1,0 0.1,0 0.1,0 0.1,0 0.1,0 0.1,0 0.1,0 0.1,0 0.1,0 0.1,0 0.1,0 0.1,0 0.1,0 0.1,0 0.1,0 0.1,0 0.1,0 0.1,0 0.1,0 0.1,0 0.1,0 0.1,0 0.1,0 0.1,0 0.1,0 0.1,0 0.1,0 0.1,0 0.1,0 0.1,0 0.1,0 0.1,0 0.1,0 0.1,0 0.1,0 0.1,0 0.1,0 0.1,0 0.1,0 0.1,0 0.1,0 0.1,0 0.1,0 0.1,0 0.1,0 0.1,0 0.1,0 0.1,0 0.1,0 0.1,0 0.1,0 0.1,0 0.1,0 0.1,0 0.1,0 0.1,0 0.1,0 0.1,0 0.1,0 0.1,0 0.1,0 0.1,0 0.1,0 0.1,0 0.1,0 0.1,0 0.1,0 0.1,0 0.1,0 0.1,0 0.1,0 0.1,0 0.1,0 0.1,0 0.1,0 0.1,0 0.1,0 0.1,0 0.1,0 0.1,0 0.1,0 0.1,0 0.1,0 0.1,0 0.1,0 0.1,0 0.1,0 0.1,0 0.1,0 0.1,0 0.1,0 0.1,0 0.1,0 0.1,0 0.1,0 0.1,0 0.1,0 0.1,0 0.1,0 0.1,0 0.1,0 0.1,0 0.1,0 0.1,0 0.1,0 0.1,0 0.1,0 0.1,0 0.1,0 0.1,0 0.1,0 0.1,0 0.1,0 0.1,0 0.1,0 0.1,0 0.1,0 0.1,0 0.1,0 0.1,0 0.1,0 0.1,0 0.1,0 0.1,0 0.1,0 0.1,0 0.1,0 0.1,0 0.1,0 0.1,0 0.1,0 0.1,0 0.1,0 0.1,0 0.1,0 0.1,0 0.1,0 0.1,0 0.1,0 0.1,0 0.1,0 0.1,0 0.1,0 0.1,0 0.1,0 0.1,0 0.1,0 0.1,0 0.1,0 0.1,0 0.1,0 0.1,0 0.1,0 0.1,0 0.1,0 0.1,0 0.1,0 0.1,0 0.1,0 0.1,0 0.1,0 0.1,0 0.1,0 0.1,0 0.1,0 0.1,0 0.1,0 0.1,0 0.1,0 0.1,0 0.1,0 0.1,0 0.1,0 0.1,0 0.1,0 0.1,0 0.1,0 0.1,0 0.1,0 0.1,0 0.1,0 0.1,0 0.1,0 0.1,0 0.1,0 0.1,0 0.1,0 0.1,0 0.1,0 0.1,0 0.1,0 0.1,0 0.1,0 0.1,0 0.1,0 0.1,0 0.1,0 0.1,0 0.1,0 0.1,0 0.1,0 0.1,0 0.1,0 0.1,0 0.1,0 0.1,0 0.1,0 0.1,0 0.1,0 0.1,0 0.1,0 0.1,0 0.1,0 0.1,0 0.1,0 0.1,0 0.1,0 0.1,0 0.1,0 0.1,0 0.1,0 0.1,0 0.1,0 0.1,0 0.1,0 0.1,0 0.1,0 0.1,0 0.1,0 0.1,0 0.1,0 0.1,0 0.1,0 0.1,0 0.1,0 0.1,0 0.1,0 0.1,0 0.1,0 0.1,0 0.1,0 0.1,0 0.1,0 0.1,0 0.1,0 0.1,0 0.1,0 0.1,0 0.1,0 0.1,0 0.1,0 0.1,0 0.1,0 0.1,0 0.1,0 0.1,0 0.1,0 0.1,0 0.1,0 0.1,0 0.1,0 0.1,0 0.1,0 0.1,0 0.1,0 0.1,0 0.1,0 0.1,0 0.1,0 0.1,0 0.1,0 0.1,0 0.1,0 0.1,0 0.1,0 0.1,0 0.1,0 0.1,0 0.1,0 0.1,0 0.1,0 0.1,0 0.1,0 0.1,0 0.1,0 0.1,0 0.1,0 0.1,0 0.1,0 0.1,0 0.1,0 0.1,0 0.1,0 0.1,0 0.1,0 0.1,0 0.1,0 0.1,0 0.1,0 0.1,0 0.1,0 0.1,0 0.1,0 0.1,0 0.1,0 0.1,0 0.1,0 0.1,0 0.1,0 0.1,0 0.1,0 0.1,0 0.1,0 0.1,0 0.1,0 0.1,0 0.1,0 0.1,0 0.1,0 0.1,0 0.1,0 0.1,0 0.1,0 0.1,0 0.1,0 0.1,0 0.1,0 0.1,0 0.1,0 0.1,0 0.1,0 0.1,0 0.1,0 0.1,0 0.1,0 0.1,0 0.1,0 0.1,0 0.1,0 0.1,0 0.1,0 0.1,0 0.1,0 0.1,0 0.1,0 0.1,0 0.1,0 0.1,0 0.1,0 0.1,0 0.1,0 0.1,0 0.1,0 0.1,0 0.1,0 0.1,0 0.1,0 0.1,0 0.1,0 0.1,0 0.1,0 0.1,0 0.1,0 0.1,0 0.1,0 0.1,0 0.1,0 0.1,0 0.1,0 0.1,0 0.1,0 0.1,0 0.1,0 0.1,0 0.1,0 0.1,0 0.1,0 0.1,0 0.1,0 0.1,0 0.1,0 0.1,0 0.1,0 0.1,0 0.1,0 0.1,0 0.1,0 0.1,0 0.1,0 0.1,0 0.1,0 0.1,0 0.1,0 0.1,0 0.1,0 0.1,0 0.1,0 0.1,0 0.1,0 0.1,0 0.1,0 0.1,0 0.1,0 0.1,0 0.1,0 0.1,0 0.1,0 0.1,0 0.1,0 0.1,0 0.1,0 0.1,0 0.1,0 0.1,0 0.1,0 0.1,0 0.1,0 0.1,0 0.1,0 0.1,0 0.1,0 0.1,0 0.1,0 0.1,0 0.1,0 0.1,0 0.1,0 0.1,0 0.1,0 0.1,0 0.1,0 0.1,0 0.1,0 0.1,0 0.1,0 0.1,0 0.1,0 0.1,0 0.1,0 0.1,0 0.1,0 0.1,0 0.1,0 0.1,0 0.1,0 0.1,0 0.1,0 0.1,0 0.1,0 0.1,0 0.1,0 0.1,0 0.1,0 0.1,0 0.1,0 0.1,0 0.1,0 0.1,0 0.1,0 0.1,0 0.1,0 0.1,0 0.1,0 0.1,0 0.1,0 0.1,0 0.1,0 0.1,0 0.1,0 0.1,0 0.1,0 0.1,0 0.1,0 0.1,0 0.1,0 0.1,0 0.1,0 0.1,0 0.1,0 0.1,0 0.1,0 0.1,0 0.1,0 0.1,0 0.1,0 0.1,0 0.1,0 0.1,0 0.1,0 0.1,0 0.1,0 0.1,0 0.1,0 0.1,0 0.1,0 0.1,0 0.1,0 0.1,0 0.1,0 0.1,0 0.1,0 0.1,0 0.1,0 0.1,0 0.1,0 0.1,0 0.1,0 0.1,0 0.1,0 0.1,0 0.1,0 0.1,0 0.1,0 0.1,0 0.1,0 0.1,0 0.1,0 0.1,0 0.1,0 0.1,0 0.1,0 0.1,0 0.1,0 0.1,0 0.1,0 0.1,0 0.1,0 0.1,0 0.1,0 0.1,0 0.1,0 0.1,0 0.1,0 0.1,0 0.1,0 0.1,0 0.1,0 0.1,0 0.1,0 0.1,0 0.1,0 0.1,0 0.1,0 0.1,0 0.1,0 0.1,0 0.1,0 0.1,0 0.1,0 0.1,0 0.1,0 0.1,0 0.1,0 0.1,0 0.1,0 0.1,0 0.1,0 0.1,0 0.1,0 0.1,0 0.1,0 0.1,0 0.1,0 0.1,0 0.1,0 0.1,0 0.1,0 0.1,0 0.1,0 0.1,0 0.1,0 0.1,0 0.1,0 0.1,0 0.1,0 0.1,0 0.1,0 0.1,0 0.1,0 0.1,0 0.1,0 0.1,0 0.1,0 0.1,0 0.1,0 0.1,0 0.1,0 0.1,0 0.1,0 0.1,0 0.1,0 0.1,0 0.1,0 0.1,0 0.1,0 0.1,0 0.1,0 0.1,0 0.1,0 0.1,0 0.1,0 0.1,0 0.1,0 0.1,0 0.1,0 0.1,0 0.1,0 0.1,0 0.1,0 0.1,0 0.1,0 0.1,0 0.1,0 0.1,0 0.1,0 0.1,0 0.1,0 0.1,0 0.1,0 0.1,0 0.1,0 0.1,0 0.1,0 0.1,0 0.1,0 0.1,0 0.1,0 0.1,0 0.1,0 0.1,0 0.1,0 0.1,0 0.1,0 0.1,0 0.1,0 0.1,0 0.1,0 0.1,0 0.1,0 0.1,0 0.1,0 0.1,0 0.1,0 0.1,0 0.1,0 0.1,0 0.1,0 0.1,0 0.1,0 0.1,0 0.1,0 0.1,0 0.1,0 0.1,0 0.1,0 0.1,0 0.1,0 0.1,0 0.1,0 0.1,0 0.1,0 0.1,0 0.1,0 0.1,0 0.1,0 0.1,0 0.1,0 0.1,0 0.1,0 0.1,0 0.1,0 0.1,0 0.1,0 0.1,0 0.1,0 0.1,0 0.1,0 0.1,0 0.1,0 0.1,0 0.1,0 0.1,0 0.1,0 0.1,0 0.1,0 0.1,0 0.1,0 0.1,0 0.1,0 0.1,0 0.1,0 0.1,0 0.1,0 0.1,0 0.1,0 0.1,0 0.1,0 0.1,0 0.1,0 0.1,0 0.1,0 0.1,0 0.1,0 0.1,0 0.1,0 0.1,0 0.1,0 0.1,0 0.1,0 0.1,0 0.1,0 0.1,0 0.1,0 0.1,0 0.1,0 0.1,0 0.1,0 0.1,0 0.1,0 0.1,0 0.1,0 0.1,0 0.1,0 0.1,0 0.1,0 0.1,0 0.1,0 0.1,0 0.1,0 0.1,0 0.1,0 0.1,0 0.1,0 0.1,0 0.1,0 0.1,0 0.1,0 0.1,0 0.1,0 0.1,0 0.1,0 0.1,0 0.1,0 0.1,0 0.1,0 0.1,0 0.1,0 0.1,0 0.1,0 0.1,0 0.1,0 0.1,0 0.1,0 0.1,0 0.1,0 0.1,0 0.1,0 0.1,0 0.1,0 0.1,0 0.1,0 0.1,0 0.1,0 0.1,0 0.1,0 0.1,0 0.1,0 0.1,0 0.1,0 0.1,0 0.1,0 0.1,0 0.1,0 0.1,0 0.1,0 0.1,0 0.1,0 0.1,0 0.1,0 0.1,0 0.1,0 0.1,0 0.1,0 0.1,0 0.1,0 0.1,0 0.1,0 0.1,0 0.1,0 0.1,0 0.1,0 0.1,0 0.1,0 0.1,0 0.1,0 0.1,0 0.1,0 0.1,0 0.1,0 0.1,0 0.1,0 0.1,0 0.1,0 0.1,0 0.1,0 0.1,0 0.1,0 0.1,0 0.1,0 0.1,0 0.1,0 0.1,0 0.1,0 0.1,0 0.1,0 0.1,0 0.1,0 0.1,0 0.1,0 0.1,0 0.1,0 0.1,0 0.1,0 0.1,0 0.1,0 0.1,0 0.1,0 0.1,0 0.1,0 0.1,0 0.1,0 0.1,0 0.1,0 0.1,0 0.1,0 0.1,0 0.1,0 0.1,0 0.1,0 0.1,0 0.1,0 0.1,0 0.1,0 0.1,0 0.1,0 0.1,0 0.1,0 0.1,0 0.1,0 0.1,0 0.1,0 0.1,0 0.1,0 0.1,0 0.1,0 0.1,0 0.1,0 0.1,0 0.1,0 0.1,0 0.1,0 0.1,0 0.1,0 0.1,0 0.1,0 0.1,0 0.1,0 0.1,0 0.1,0 0.1,0 0.1,0 0.1,0 0.1,0 0.1,0 0.1,0 0.1,0 0.1,0 0.1,0 0.1,0 0.1,0 0.1,0 0.1,0 0.1,0 0.1,0 0.1,0 0.1,0 0.1,0 0.1,0 0.1,0 0.1,0 0.1,0 0.1,0 0.1,0 0.1,0 0.1,0 0.1,0 0.1,0 0.1,0 0.1,0 0.1,0 0.1,0 0.1,0 0.1,0 0.1,0 0.1,0 0.1,0 0.1,0 0.1,0 0.1,0 0.1,0 0.1,0 0.1,0 0.1,0 0.1,0 0.1,0 0.1,0 0.1,0 0.1,0 0.1,0 0.1,0 0.1,0 0.1,0 0.1,0 0.1,0 0.1,0 0.1,0 0.1,0 0.1,0 0.1,0 0.1,0 0.1,0 0.1,0 0.1,0 0.1,0 0.1,0 0.1,0 0.1,0 0.1,0 0.1,0 0.1,0 0.1,0 0.1,0 0.1,0 0.1,0 0.1,0 0.1,0 0.1,0 0.1,0 0.1,0 0.1,0 0.1,0 0.1,0 0.1,0 0.1,0 0.1,0 0.1,0 0.1,0 0.1,0 0.1,0 0.1,0 0.1,0 0.1,0 0.1,0 0.1,0 0.1,0 0.1,0 0.1,0 0.1,0 0.1,0 0.1,0 0.1,0 0.1,0 0.1,0 0.1,0 0.1,0 0.1,0 0.1,0 0.1,0 0.1,0 0.1,0 0.1,0 0.1,0 0.1,0 0.1,0 0.1,0 0.1,0 0.1,0 0.1,0 0.1,0 0.1,0 0.1,0 0.1,0 0.1,0 0.1,0 0.1,0 0.1,0 0.1,0 0.1,0 0.1,0 0.1,0 0.1,0 0.1,0 0.1,0 0.1,0 0.1,0 0.1,0 0.1,0 0.1,0 0.1,0 0.1,0 0.1,0 0.1,0 0.1,0 0.1,0 0.1,0 0.1,0 0.1,0 0.1,0 0.1,0 0.1,0 0.1,0 0.1,0 0.1,0 0.1,0 0.1,0 0.1,0 0.1,0 0.1,0 0.1,0 0.1,0 0.1,0 0.1,0 0.1,0 0.1,0 0.1,0 0.1,0 0.1,0 0.1,0 0.1,0 0.1,0 0.1,0 0.1,0 0.1,0 0.1,0 0.1,0 0.1,0 0.1,0 0.1,0 0.1,0 0.1,0 0.1,0 0.1,0 0.1,0 0.1,0 0.1,0 0.1,0 0.1,0 0.1,0 0.1,0 0.1,0 0.1,0 0.1,0 0.1,0 0.1,0 0.1,0 0.1,0 0.1,0 0.1,0 0.1,0 0.1,0 0.1,0 0.1,0 0.1,0 0.1,0 0.1,0 0.1,0 0.1,0 0.1,0 0.1,0 0.1,0 0.1,0 0.1,0 0.1,0 0.1,0 0.1,0 0.1,0 0.1,0 0.1,0 0.1,0 0.1,0 0.1,0 0.1,0 0.1,0 0.1,0 0.1,0 0.1,0 0.1,0 0.1,0 0.1,0 0.1,0 0.1,0 0.1,0 0.1,0 0.1,0 0.1,0 0.1,0 0.1,0 0.1,0 0.1,0 0.1,0 0.1,0 0.1,0 0.1,0 0.1,0 0.1,0 0.1,0 0.1,0 0.1,0 0.1,0 0.1,0 0.1,0 0.1,0 0.1,0 0.1,0 0.1,0 0.1,0 0.1,0 0.1,0 0.1,0 0.1,0 0.1,0 0.1,0 0.1,0 0.1,0 0.1,0 0.1,0 0.1,0 0.1,0 0.1,0 0.1,0 0.1,0 0.1,0 0.1,0 0.1,0 0.1,0 0.1,0 0.1,0 0.1,0 0.1,0 0.1,0 0.1,0 0.1,0 0.1,0 0.1,0 0.1,0 0.1,0 0.1,0 0.1,0 0.1,0 0.1,0 0.1,0 0.1,0 0.1,0 0.1,0 0.1,0 0.1,0 0.1,0 0.1,0 0.1,0 0.1,0 0.1,0 0.1,0 0.1,0 0.1,0 0.1,0 0.1,0 0.1,0 0.1,0 0.1,0 0.1,0 0.1,0 0.1,0 0.1,0 0.1,0 0.1,0 0.1,0 0.1,0 0.1,0 0.1,0 0.1,0 0.1,0 0.1,0 0.1,0 0.1,0 0.1,0 0.1,0 0.1,0 0.1,0 0.1,0 0.1,0 0.1,0 0.1,0 0.1,0 0.1,0 0.1,0 0.1,0 0.1,0 0.1,0 0.1,0 0.1,0 0.1,0 0.1,0 0.1,0 0.1,0 0.1,0 0.1,0 0.1,0 0.1,0 0.1,0 0.1,0 0.1,0 0.1,0 0.1,0 0.1,0 0.1,0 0.1,0 0.1,0 0.1,0 0.1,0 0.1,0 0.1,0 0.1,0 0.1,0 0.1,0 0.1,0 0.1,0 0.1,0 0.1,0 0.1,0 0.1,0 0.1,0 0.1,0 0.1,0 0.1,0 0.1,0 0.1,0 0.1,0 0.1,0 0.1,0 0.1,0 0.1,0 0.1,0 0.1,0 0.1,0 0.1,0 0.1,0 0.1,0 0.1,0 0.1,0 0.1,0 0.1,0 0.1,0 0.1,0 0.1,0 0.1,0 0.1,0 0.1,0 0.1,0 0.1,0 0.1,0 0.1,0 0.1,0 0.1,0 0.1,0 0.1,0 0.1,0 0.1,0 0.1,0 0.1,0 0.1,0 0.1,0 0.1,0 0.1,0 0.1,0 0.1,0 0.1,0 0.1,0 0.1,0 0.1,0 0.1,0 0.1,0 0.1,0 0.1,0 0.1,0 0.1,0 0.1,0 0.1,0 0.1,0 0.1,0 0.1,0 0.1,0 0.1,0 0.1,0 0.1,0 0.1,0 0.1,0 0.1,0 0.1,0 0.1,0 0.1,0 0.1,0 0.1,0 0.1,0 0.1,0 0.1,0 0.1,0 0.1,0 0.1,0 0.1,0 0.1,0 0.1,0 0.1,0 0.1,0 0.1,0 0.1,0 0.1,0 0.1,0 0.1,0 0.1,0 0.1,0 0.1,0 0.1,0 0.1,0 0.1,0 0.1,0 0.1,0 0.1,0 0.1,0 0.1,0 0.1,0 0.1,0 0.1,0 0.1,0 0.1,0 0.1,0 0.1,0 0.1,0 0.1,0 0.1,0 0.1,0 0.1,0 0.1,0 0.1,0 0.1,0 0.1,0 0.1,0 0.1,0 0.1,0 0.1,0 0.1,0 0.1,0 0.1,0 0.1,0 0.1,0 0.1,0 0.1,0 0.1,0 0.1,0 0.1,0 0.1,0 0.1,0 0.1,0 0.1,0 0.1,0 0.1,0 0.1,0 0.1,0 0.1,0 0.1,0 0.1,0 0.1,0 0.1,0 0.1,0 0.1,0 0.1,0 0.1,0 0.1,0 0.1,0 0.1,0 0.1,0 0.1,0 0.1,0 0.1,0 0.1,0 0.1,0 0.1,0 0.1,0 0.1,0 0.1,0 0.1,0 0.1,0 0.1,0 0.1,0 0.1,0 0.1,0 0.1,0 0.1,0 0.1,0 0.1,0 0.1,0 0.1,0 0.1,0 0.1,0 0.1,0 0.1,0 0.1,0 0.1,0 0.1,0 0.1,0 0.1,0 0.1,0 0.1,0 0.1,0 0.1,0 0.1,0 0.1,0 0.1,0 0.1,0 0.1,0 0.1,0 0.1,0 0.1,0 0.1,0 0.1,0 0.1,0 0.1,0 0.1,0 0.1,0 0.1,0 0.1,0 0.1,0 0.1,0 0.1,0 0.1,0 0.1,0 0.1,0 0.1,0 0.1,0 0.1,0 0.1,0 0.1,0 0.1,0 0.1,0 0.1,0 0.1,0 0.1,0 0.1,0 0.1,0 0.1,0 0.1,0 0.1,0 0.1,0 0.1,0 0.1,0 0.1,0 0.1,0 0.1,0 0.1,0 0.1,0 0.1,0 0.1,0 0.1,0 0.1,0 0.1,0 0.1,0 0.1,0 0.1,0 0.1,0 0.1,0 0.1,0 0.1,0 0.1,0 0.1,0 0.1,0 0.1,0 0.1,0 0.1,0 0.1,0 0.1,0 0.1,0 0.1,0 0.1,0 0.1,0 0.1,0 0.1,0 0.1,0 0.1,0 0.1,0 0.1,0 0.1,0 0.1,0 0.1,0 0.1,0 0.1,0 0.1,0 0.1,0 0.1,0 0.1,0 0.1,0 0.1,0 0.1,0 0.1,0 0.1,0 0.1,0 0.1,0 0.1,0 0.1,0 0.1,0 0.1,0 0.1,0 0.1,0 0.1,0 0.1,0 0.1,0 0.1,0 0.1,0 0.1,0 0.1,0 0.1,0 0.1,0 0.1,0 0.1,0 0.1,0 0.1,0 0.1,0 0.1,0 0.1,0 0.1,0 0.1,0 0.1,0 0.1,0 0.1,0 0.1,0 0.1,0 0.1,0 0.1,0 0.1,0 0.1,0 0.1,0 0.1,0 0.1,0 0.1,0 0.1,0 0.1,0 0.1,0 0.1,0 0.1,0 0.1,0 0.1,0 0.1,0 0.1,0 0.1,0 0.1,0 0.1,0 0.1,0 0.1,0 0.1,0 0.1,0 0.1,0 0.1,0 0.1,0 0.1,0 0.1,0 0.1,0 0.1,0 0.1,0 0.1,0 0.1,0 0.1,0 0.1,0 0.1,0 0.1,0 0.1,0 0.1,0 0.1,0 0.1,0 0.1,0 0.1,0 0.1,0 0.1,0 0.1,0 0.1,0 0.1,0 0.1,0 0.1,0 0.1,0 0.1,0 0.1,0 0.1,0 0.1,0 0.1,0 0.1,0 0.1,0 0.1,0 0.1,0 0.1,0 0.1,0 0.1,0 0.1,0 0.1,0 0.1,0 0.1,0 0.1,0 0.1,0 0.1,0 0.1,0 0.1,0 0.1,0 0.1,0 0.1,0 0.1,0 0.1,0 0.1,0 0.1,0 0.1,0 0.1,0 0.1,0 0.1,0 0.1,0 0.1,0 0.1,0 0.1,0 0.1,0 0.1,0 0.1,0 0.1,0 0.1,0 0.1,0 0.1,0 0.1,0 0.1,0 0.1,0 0.1,0 0.1,0 0.1,0 0.1,0 0.1,0 0.1,0 0.1,0 0.1,0 0.1,0 0.1,0 0.1,0 0.1,0 0.1,0 0.1,0 0.1,0 0.1,0 0.1,0 0.1,0 0.1,0 0.1,0 0.1,0 0.1,0 0.1,0 0.1,0 0.1,0 0.1,0 0.1,0 0.1,0 0.1,0 0.1,0 0.1,0 0.1,0 0.1,0 0.1,0 0.1,0 0.1,0 0.1,0 0.1,0 0.1,0 0.1,0 0.1,0 0.1,0 0.1,0 0.1,0 0.1,0 0.1,0 0.1,0 0.1,0 0.1,0 0.1,0 0.1,0 0.1,0 0.1,0 0.1,0 0.1,0 0.1,0 0.1,0 0.1,0 0.1,0 0.1,0 0.1,0 0.1,0 0.1,0 0.1,0 0.1,0 0.1,0 0.1,0 0.1,0 0.1,0 0.1,0 0.1,0 0.1,0 0.1,0 0.1,0 0.1,0 0.1,0 0.1,0 0.1,0 0.1,0 0.1,0 0.1,0 0.1,0 0.1,0 0.1,0 0.1,0 0.1,0 0.1,0 0.1,0 0.1,0 0.1,0 0.1,0 0.1,0 0.1,0 0.1,0 0.1,0 0.1,0 0.1,0 0.1,0 0.1,0 0.1,0 0.1,0 0.1,0 0.1,0 0.1,0 0.1,0 0.1,0 0.1,0 0.1,0 0.1,0 0.1,0 0.1,0 0.1,0 0.1,0 0.1,0 0.1,0 0.1,0 0.1,0 0.1,0 0.1,0 0.1,0 0.1,0 0.1,0 0.1,0 0.1,0 0.1,0 0.1,0 0.1,0 0.1,0 0.1,0 0.1,0 0.1,0 0.1,0 0.1,0 0.1,0 0.1,0 0.1,0 0.1,0 0.1,0 0.1,0 0.1,0 0.1,0 0.1,0 0.1,0 0.1,0 0.1,0 0.1,0 0.1,0 0.1,0 0.1,0 0.1,0 0.1,0 0.1,0 0.1,0 0.1,0 0.1,0 0.1,0 0.1,0 0.1,0 0.1,0 0.1,0 0.1,0 0.1,0 0.1,0 0.1,0 0.1,0 0.1,0 0.1,0 0.1,0 0.1,0 0.1,0 0.1,0 0.1,0 0.1,0 0.1,0 0.1,0 0.1,0 0.1,0 0.1,0 0.1,0 0.1,0 0.1,0 0.1,0 0.1,0 0.1,0 0.1,0 0.1,0 0.1,0 0.1,0 0.1,0 0.1,0 0.1,0 0.1,0 0.1,0 0.1,0 0.1,0 0.1,0 0.1,0 0.1,0 0.1,0 0.1,0 0.1,0 0.1,0 0.1,0 0.1,0 0.1,0 0.1,0 0.1,0 0.1,0 0.1,0 0.1,0 0.1,0 0.1,0 0.1,0 0.1,0 0.1,0 0.1,0 0.1,0 0.1,0 0.1,0 0.1,0 0.1,0 0.1,0 0.1,0 0.1,0 0.1,0 0.1,0 0.1,0 0.1,0 0.1,0 0.1,0 0.1,0 0.1,0 0.1,0 0.1,0 0.1,0 0.1,0 0.1,0 0.1,0 0.1,0 0.1,0 0.1,0 0.1,0 0.1,0 0.1,0 0.1,0 0.1,0 0.1,0 0.1,0 0.1,0 0.1,0 0.1,0 0.1,0 0.1,0 0.1,0 0.1,0 0.1,0 0.1,0 0.1,0 0.1,0 0.1,0 0.1,0 0.1,0 0.1,0 0.1,0 0.1,0 0.1,0 0.1,0 0.1,0 0.1,0 0.1,0 0.1,0 0.1,0 0.1,0 0.1,0 0.1,0 0.1,0 0.1,0 0.1,0 0.1,0 0.1,0 0.1,0 0.1,0 0.1,0 0.1,0 0.1,0 0.1,0 0.1,0 0.1,0 0.1,0 0.1,0 0.1,0 0.1,0 0.1,0 0.1,0 0.1,0 0.1,0 0.1,0 0.1,0 0.1,0 0.1,0 0.1,0 0.1,0 0.1,0 0.1,0 0.1,0 0.1,0 0.1,0 0.1,0 0.1,0 0.1,0 0.1,0 0.1,0 0.1,0 0.1,0 0.1,0 0.1,0 0.1,0 0.1,0 0.1,0 0.1,0 0.1,0 0.1,0 0.1,0 0.1,0 0.1,0 0.1,0 0.1,0 0.1,0 0.1,0 0.1,0 0.1,0 0.1,0 0.1,0 0.1,0 0.1,0 0.1,0 0.1,0 0.1,0 0.1,0 0.1,0 0.1,0 0.1,0 0.1,0 0.1,0 0.1,0 0.1,0 0.1,0 0.1,0 0.1,0 0.1,0 0.1,0 0.1,0 0.1,0 0.1,0 0.1,0 0.1,0 0.1,0 0.1,0 0.1,0 0.1,0 0.1,0 0.1,0 0.1,0 0.1,0 0.1,0 0.1,0 0.1,0 0.1,0 0.1,0 0.1,0 0.1,0 0.1,0 0.1,0 0.1,0 0.1,0 0.1,0 0.1,0 0.1,0 0.1,0 0.1,0 0.1,0 0.1,0 0.1,0 0.1,0 0.1,0 0.1,0 0.1,0 0.1,0 0.1,0 0.1,0 0.1,0 0.1,0 0.1,0 0.1,0 0.1,0 0.1,0 0.1,0 0.1,0 0.1,0 0.1,0 0.1,0 0.1,0 0.1,0 0.1,0 0.1,0 0.1,0 0.1,0 0.1,0 0.1,0 0.1,0 0.1,0 0.1,0 0.1,0 0.1,0 0.1,0 0.1,0 0.1,0 0.1,0 0.1,0 0.1,0 0.1,0 0.1,0 0.1,0 0.1,0 0.1,0 0.1,0 0.1,0 0.1,0 0.1,0 0.1,0 0.1,0 0.1,0 0.1,0 0.1,0 0.1,0 0.1,0 0.1,0 0.1,0 0.1,0 0.1,0 0.1,0 0.1,0 0.1,0 0.1,0 0.1,0 0.1,0 0.1,0 0.1,0 0.1,0 0.1,0 0.1,0 0.1,0 0.1,0 0.1,0 0.1,0 0.1,0 0.1,0 0.1,0 0.1,0 0.1,0 0.1,0 0.1,0 0.1,0 0.1,0 0.1,0 0.1,0 0.1,0 0.1,0 0.1,0 0.1,0 0.1,0 0.1,0 0.1,0 0.1,0 0.1,0 0.1,0 0.1,0 0.1,0 0.1,0 0.1,0 0.1,0 0.1,0 0.1,0 0.1,0 0.1,0 0.1,0 0.1,0 0.1,0 0.1,0 0.1,0 0.1,0 0.1,0 0.1,0 0.1,0 0.1,0 0.1,0 0.1,0 0.1,0 0.1,0 0.1,0 0.1,0 0.1,0 0.1,0 0.1,0 0.1,0 0.1,0 0.1,0 0.1,0 0.1,0 0.1,0 0.1,0 0.1,0 0.1,0 0.1,0 0.1,0 0.1,0 0.1,0 0.1,0 0.1,0 0.1,0 0.1,0 0.1,0 0.1,0 0.1,0 0.1,0 0.1,0 0.1,0 0.1,0 0.1,0 0.1,0 0.1,0 0.1,0 0.1,0 0.1,0 0.1,0 0.1,0 0.1,0 0.1,0 0.1,0 0.1,0 0.1,0 0.1,0 0.1,0 0.1,0 0.1,0 0.1,0 0.1,0 0.1,0 0.1,0 0.1,0 0.1,0 0.1,0 0.1,0 0.1,0 0.1,0 0.1,0 0.1,0 0.1,0 0.1,0 0.1,0 0.1,0 0.1,0 0.1,0 0.1,0 0.1,0 0.1,0 0.1,0 0.1,0 0.1,0 0.1,0 0.1,0 0.1,0 0.1,0 0.1,0 0.1,0 0.1,0 0.1,0 0.1,0 0.1,0 0.1,0 0.1,0 0.1,0 0.1,0 0.1,0 0.1,0 0.1,0 0.1,0 0.1,0 0.1,0 0.1,0 0.1,0 0.1,0 0.1,0 0.1,0 0.1,0 0.1,0 0.1,0 0.1,0 0.1,0 0.1,0 0.1,0 0.1,0 0.1,0 0.1,0 0.1,0 0.1,0 0.1,0 0.1,0 0.1,0 0.1,0 0.1,0 0.1,0 0.1,0 0.1,0 0.1,0 0.1,0 0.1,0 0.1,0 0.1,0 0.1,0 0.1,0 0.1,0 0.1,0 0.1,0 0.1,0 0.1,0 0.1,0 0.1,0 0.1,0 0.1,0 0.1,0 0.1,0 0.1,0 0.1,0 0.1,0 0.1,0 0.1,0 0.1,0 0.1,0 0.1,0 0.1,0 0.1,0 0.1,0 0.1,0 0.1,0 0.1,0 0.1,0 0.1,0 0.1,0 0.1,0 0.1,0 0.1,0 0.1,0 0.1,0 0.1,0 0.1,0 0.1,0 0.1,0 0.1,0 0.1,0 0.1,0 0.1,0 0.1,0 0.1,0 0.1,0 0.1,0 0.1,0 0.1,0 0.1,0 0.1,0 0.1,0 0.1,0 0.1,0 0.1,0 0.1,0 0.1,0 0.1,0 0.1,0 0.1,0 0.1,0 0.1,0 0.1,0 0.1,0 0.1,0 0.1,0 0.1,0 0.1,0 0.1,0 0.1,0 0.1,0 0.1,0 0.1,0 0.1,0 0.1,0 0.1,0 0.1,0 0.1,0 0.1,0 0.1,0 0.1,0 0.1,0 0.1,0 0.1,0 0.1,0 0.1,0 0.1,0 0.1,0 0.1,0 0.1,0 0.1,0 0.1,0 0.1,0 0.1,0 0.1,0 0.1,0 0.1,0 0.1,0 0.1,0 0.1,0 0.1,0 0.1,0 0.1,0 0.1,0 0.1,0 0.1,0 0.1,0 0.1,0 0.1,0 0.1,0 0.1,0 0.1,0 0.1,0 0.1,0 0.1,0 0.1,0 0.1,0 0.1,0 0.1,0 0.1,0 0.1,0 0.1,0 0.1,0 0.1,0 0.1,0 0.1,0 0.1,0 0.1,0 0.1,0 0.1,0 0.1,0 0.1,0 0.1,0 0.1,0 0.1,0 0.1,0 0.1,0 0.1,0 0.1,0 0.1,0 0.1,0 0.1,0 0.1,0 0.1,0 0.1,0 0.1,0 0.1,0 0.1,0 0.1,0 0.1,0 0.1,0 0.1,0 0.1,0 0.1,0 0.1,0 0.1,0 0.1,0 0.1,0 0.1,0 0.1,0 0.1,0 0.1,0 0.1,0 0.1,0 0.1,0 0.1,0 0.1,0 0.1,0 0.1,0 0.1,0 0.1,0 0.1,0 0.1,0 0.1,0 0.1,0 0.1,0 0.1,0 0.1,0 0.1,0 0.1,0 0.1,0 0.1,0 0.1,0 0.1,0 0.1,0 0.1,0 0.1,0 0.1,0 0.1,0 0.1,0 0.1,0 0.1,0 0.1,0 0.1,0 0.1,0 0.1,0 0.1,0 0.1,0 0.1,0 0.1,0 0.1,0 0.1,0 0.1,0 0.1,0 0.1,0 0.1,0 0.1,0 0.1,0 0.1,0 0.1,0 0.1,0 0.1,0 0.1,0 0.1,0 0.1,0 0.1,0 0.1,0 0.1,0 0.1,0 0.1,0 0.1,0 0.1,0 0.1,0 0.1,0 0.1,0 0.1,0 0.1,0 0.1,0 0.1,0 0.1,0 0.1,0 0.1,0 0.1,0 0.1,0 0.1,0 0.1,0 0.1,0 0.1,0 0.1,0 0.1,0 0.1,0 0.1,0 0.1,0 0.1,0 0.1,0 0.1,0 0.1,0 0.1,0 0.1,0 0.1,0 0.1,0 0.1,0 0.1,0 0.1,0 0.1,0 0.1,0 0.1,0 0.1,0 0.1,0 0.1,0 0.1,0 0.1,0 0.1,0 0.1,0 0.1,0 0.1,0 0.1,0 0.1,0 0.1,0 0.1,0 0.1,0 0.1,0 0.1,0 0.1,0 0.1,0 0.1,0 0.1,0 0.1,0 0.1,0 0.1,0 0.1,0 0.1,0 0.1,0 0.1,0 0.1,0 0.1,0 0.1,0 0.1,0 0.1,0 0.1,0 0.1,0 0.1,0 0.1,0 0.1,0 0.1,0 0.1,0 0.1,0 0.1,0 0.1,0 0.1,0 0.1,0 0.1,0 0.1,0 0.1,0 0.1,0 0.1,0 0.1,0 0.1,0 0.1,0 0.1,0 0.1,0 0.1,0 0.1,0 0.1,0 0.1,0 0.1,0 0.1,0 0.1,0 0.1,0 0.1,0 0.1,0 0.1,0 0.1,0 0.1,0 0.1,0 0.1,0 0.1,0 0.1,0 0.1,0 0.1,0 0.1,0 0.1,0 0.1,0 0.1,0 0.1,0 0.1,0 0.1,0 0.1,0 0.1,0 0.1,0 0.1,0 0.1,0 0.1,0 0.1,0 0.1,0 0.1,0 0.1,0 0.1,0 0.1,0 0.1,0 0.1,0 0.1,0 0.1,0 0.1,0 0.1,0 0.1,0 0.1,0 0.1,0 0.1,0 0.1,0 0.1,0 0.1,0 0.1,0 0.1,0 0.1,0 0.1,0 0.1,0 0.1,0 0.1,0 0.1,0 0.1,0 0.1,0 0.1,0 0.1,0 0.1,0 0.1,0 0.1,0 0.1,0 0.1,0 0.1,0 0.1,0 0.1,0 0.1,0 0.1,0 0.1,0 0.1,0 0.1,0 0.1,0 0.1,0 0.1,0 0.1,0 0.1,0 0.1,0 0.1,0 0.1,0 0.1,0 0.1,0 0.1,0 0.1,0 0.1,0 0.1,0 0.1,0 0.1,0 0.1,0 0.1,0 0.1,0 0.1,0 0.1,0 0.1,0 0.1,0 0.1,0 0.1,0 0.1,0 0.1,0 0.1,0 0.1,0 0.1,0 0.1,0 0.1,0 0.1,0 0.1,0 0.1,0 0.1,0 0.1,0 0.1,0 0.1,0 0.1,0 0.1,0 0.1,0 0.1,0 0.1,0 0.1,0 0.1,0 0.1,0 0.1,0 0.1,0 0.1,0 0.1,0 0.1,0 0.1,0 0.1,0 0.1,0 0.1,0 0.1,0 0.1,0 0.1,0 0.1,0 0.1,0 0.1,0 0.1,0 0.1,0 0.1,0 0.1,0 0.1,0 0.1,0 0.1,0 0.1,0 0.1,0 0.1,0 0.1,0 0.1,0 0.1,0 0.1,0 0.1,0 0.1,0 0.1,0 0.1,0 0.1,0 0.1,0 0.1,0 0.1,0 0.1,0 0.1,0 0.1,0 0.1,0 0.1,0 0.1,0 0.1,0 0.1,0 0.1,0 0.1,0 0.1,0 0.1,0 0.1,0 0.1,0 0.1,0 0.1,0 0.1,0 0.1,0 0.1,0 0.1,0 0.1,0 0.1,0 0.1,0 0.1,0 0.1,0 0.1,0 0.1,0 0.1,0 0.1,0 0.1,0 0.1,0 0.1,0 0.1,0 0.1,0 0.1,0 0.1,0 0.1,0 0.1,0 0.1,0 0.1,0 0.1,0 0.1,0 0.1,0 0.1,0 0.1,0 0.1,0 0.1,0 0.1,0 0.1,0 0.1,0 0.1,0 0.1,0 0.1,0 0.1,0 0.1,0 0.1,0 0.1,0 0.1,0 0.1,0 0.1,0 0.1,0 0.1,0 0.1,0 0.1,0 0.1,0 0.1,0 0.1,0 0.1,0 0.1,0 0.1,0 0.1,0 0.1,0 0.1,0 0.1,0 0.1,0 0.1,0 0.1,0 0.1,0 0.1,0 0.1,0 0.1,0 0.1,0 0.1,0 0.1,0 0.1,0 0.1,0 0.1,0 0.1,0 0.1,0 0.1,0 0.1,0 0.1,0 0.1,0 0.1,0 0.1,0 0.1,0 0.1,0 0.1,0 0.1,0 0.1,0 0.1,0 0.1,0 0.1,0 0.1,0 0.1,0 0.1,0 0.1,0 0.1,0 0.1,0 0.1,0 0.1,0 0.1,0 0.1,0 0.1,0 0.1,0 0.1,0 0.1,0 0.1,0 0.1,0 0.1,0 0.1,0 0.1,0 0.1,0 0.1,0 0.1,0 0.1,0 0.1,0 0.1,0 0.1,0 0.1,0 0.1,0 0.1,0 0.1,0 0.1,0 0.1,0 0.1,0 0.1,0 0.1,0 0.1,0 0.1,0 0.1,0 0.1,0 0.1,0 0.1,0 0.1,0 0.1,0 0.1,0 0.1,0 0.1,0 0.1,0 0.1,0 0.1,0 0.1,0 0.1,0 0.1,0 0.1,0 0.1,0 0.1,0 0.1,0 0.1,0 0.1,0 0.1,0 0.1,0 0.1,0 0.1,0 0.1,0 0.1,0 0.1,0 0.1,0 0.1,0 0.1,0 0.1,0 0.1,0 0.1,0 0.1,0 0.1,0 0.1,0 0.1,0 0.1,0 0.1,0 0.1,0 0.1,0 0.1,0 0.1,0 0.1,0 0.1,0 0.1,0 0.1,0 0.1,0 0.1,0 0.1,0 0.1,0 0.1,0 0.1,0 0.1,0 0.1,0 0.1,0 0.1,0 0.1,0 0.1,0 0.1,0 0.1,0 0.1,0 0.1,0 0.1,0 0.1,0 0.1,0 0.1,0 0.1,0 0.1,0 0.1,0 0.1,0 0.1,0 0.1,0 0.1,0 0.1,0 0.1,0 0.1,0 0.1,0 0.1,0 0.1,0 0.1,0 0.1,0 0.1,0 0.1,0 0.1,0 0.1,0 0.1,0 0.1,0 0.1,0 0.1,0 0.1,0 0.1,0 0.1,0 0.1,0 0.1,0 0.1,0 0.1,0 0.1,0 0.1,0 0.1,0 0.1,0 0.1,0 0.1,0 0.1,0 0.1,0 0.1,0 0.1,0 0.1,0 0.1,0 0.1,0 0.1,0 0.1,0 0.1,0 0.1,0 0.1,0 0.1,0 0.1,0 0.1,0 0.1,0 0.1,0 0.1,0 0.1,0 0.1,0 0.1,0 0.1,0 0.1,0 0.1,0 0.1,0 0.1,0 0.1,0 0.1,0 0.1,0 0.1,0 0.1,0 0.1,0 0.1,0 0.1,0 0.1,0 0.1,0 0.1,0 0.1,0 0.1,0 0.1,0 0.1,0 0.1,0 0.1,0 0.1,0 0.1,0 0.1,0 0.1,0 0.1,0 0.1,0 0.1,0 0.1,0 0.1,0 0.1,0 0.1,0 0.1,0 0.1,0 0.1,0 0.1,0 0.1,0 0.1,0 0.1,0 0.1,0 0.1,0 0.1,0 0.1,0 0.1,0 0.1,0 0.1,0 0.1,0 0.1,0 0.1,0 0.1,0 0.1,0 0.1,0 0.1,0 0.1,0 0.1,0 0.1,0 0.1,0 0.1,0 0.1,0 0.1,0 0.1,0 0.1,0 0.1,0 0.1,0 0.1,0 0.1,0 0.1,0 0.1,0 0.1,0 0.1,0 0.1,0 0.1,0 0.1,0 0.1,0 0.1,0 0.1,0 0.1,0 0.1,0 0.1,0 0.1,0 0.1,0 0.1,0 0.1,0 0.1,0 0.1,0 0.1,0 0.1,0 0.1,0 0.1,0 0.1,0 0.1,0 0.1,0 0.1,0 0.1,0 0.1,0 0.1,0 0.1,0 0.1,0 0.1,0 0.1,0 0.1,0 0.1,0 0.1,0 0.1,0 0.1,0 0.1,0 0.1,0 0.1,0 0.1,0 0.1,0 0.1,0 0.1,0 0.1,0 0.1,0 0.1,0 0.1,0 0.1,0 0.1,0 0.1,0 0.1,0 0.1,0 0.1,0 0.1,0 0.1,0 0.1,0 0.1,0 0.1,0 0.1,0 0.1,0 0.1,0 0.1,0 0.1,0 0.1,0 0.1,0 0.1,0 0.1,0 0.1,0 0.1,0 0.1,0 0.1,0 0.1,0 0.1,0 0.1,0 0.1,0 0.1,0 0.1,0 0.1,0 0.1,0 0.1,0 0.1,0 0.1,0 0.1,0 0.1,0 0.1,0 0.1,0 0.1,0 0.1,0 0.1,0 0.1,0 0.1,0 0.1,0 0.1,0 0.1,0 0.1,0 0.1,0 0.1,0 0.1,0 0.1,0 0.1,0 0.1,0 0.1,0 0.1,0 0.1,0 0.1,0 0.1,0 0.1,0 0.1,0 0.1,0 0.1,0 0.1,0 0.1,0 0.1,0 0.1,0 0.1,0 0.1,0 0.1,0 0.1,0 0.1,0 0.1,0 0.1,0 0.1,0 0.1,0 0.1,0 0.1,0 0.1,0 0.1,0 0.1,0 0.1,0 0.1,0 0.1,0 0.1,0 0.1,0 0.1,0 0.1,0 0.1,0 0.1,0 0.1,0 0.1,0 0.1,0 0.1,0 0.1,0 0.1,0 0.1,0 0.1,0 0.1,0 0.1,0 0.1,0 0.1,0 0.1,0 0.1,0 0.1,0 0.1,0 0.1,0 0.1,0 0.1,0 0.1,0 0.1,0 0.1,0 0.1,0 0.1,0 0.1,0 0.1,0 0.1,0 0.1,0 0.1,0 0.1,0 0.1,0 0.1,0 0.1,0 0.1,0 0.1,0 0.1,0 0.1,0 0.1,0 0.1,0 0.1,0 0.1,0 0.1,0 0.1,0 0.1,0 0.1,0 0.1,0 0.1,0 0.1,0 0.1,0 0.1,0 0.1,0 0.1,0 0.1,0 0.1,0 0.1,0 0.1,0 0.1,0 0.1,0 0.1,0 0.1,0 0.1,0 0.1,0 0.1,0 0.1,0 0.1,0 0.1,0 0.1,0 0.1,0 0.1,0 0.1,0 0.1,0 0.1,0 0.1,0 0.1,0 0.1,0 0.1,0 0.1,0 0.1,0 0.1,0 0.1,0 0.1,0 0.1,0 0.1,0 0.1,0 0.1,0 0.1,0 0.1,0 0.1,0 0.1,0 0.1,0 0.1,0 0.1,0 0.1,0 0.1,0 0.1,0 0.1,0 0.1,0 0.1,0 0.1,0 0.1,0 0.1,0 0.1,0 0.1,0 0.1,0 0.1,0 0.1,0 0.1,0 0.1,0 0.1,0 0.1,0 0.1,0 0.1,0 0.1,0 0.1,0 0.1,0 0.1,0 0.1,0 0.1,0 0.1,0 0.1,0 0.1,0 0.1,0 0.1,0 0.1,0 0.1,0 0.1,0 0.1,0 0.1,0 0.1,0 0.1,0 0.1,0 0.1,0 0.1,0 0.1,0 0.1,0 0.1,0 0.1,0 0.1,0 0.1,0 0.1,0 0.1,0 0.1,0 0.1,0 0.1,0 0.1,0 0.1,0 0.1,0 0.1,0 0.1,0 0.1,0 0.1,0 0.1,0 0.1,0 0.1,0 0.1,0 0.1,0 0.1,0 0.1,0 0.1,0 0.1,0 0.1,0 0.1,0 0.1,0 0.1,0 0.1,0 0.1,0 0.1,0 0.1,0 0.1,0 0.1,0 0.1,0 0.1,0 0.1,0 0.1,0 0.1,0 0.1,0 0.1,0 0.1,0 0.1,0 0.1,0 0.1,0 0.1,0 0.1,0 0.1,0 0.1,0 0.1,0 0.1,0 0.1,0 0.1,0 0.1,0 0.1,0 0.1,0 0.1,0 0.1,0 0.1,0 0.1,0 0.1,0 0.1,0 0.1,0 0.1,0 0.1,0 0.1,0 0.1,0 0.1,0 0.1,0 0.1,0 0.1,0 0.1,0 0.1,0 0.1,0 0.1,0 0.1,0 0.1,0 0.1,0 0.1,0 0.1,0 0.1,0 0.1,0 0.1,0 0.1,0 0.1,0 0.1,0 0.1,0 0.1,0 0.1,0 0.1,0 0.1,0 0.1,0 0.1,0 0.1,0 0.1,0 0.1,0 0.1,0 0.1,0 0.1,0 0.1,0 0.1,0 0.1,0 0.1,0 0.1,0 0.1,0 0.1,0 0.1,0 0.1,0 0.1,0 0.1,0 0.1,0 0.1,0 0.1,0 0.1,0 0.1,0 0.1,0 0.1,0 0.1,0 0.1,0 0.1,0 0.1,0 0.1,0 0.1,0 0.1,0 0.1,0 0.1,0 0.1,0 0.1,0 0.1,0 0.1,0 0.1,0 0.1,0 0.1,0 0.1,0 0.1,0 0.1,0 0.1,0 0.1,0 0.1,0 0.1,0 0.1,0 0.1,0 0.1,0 0.1,0 0.1,0 0.1,0 0.1,0 0.1,0 0.1,0 0.1,0 0.1,0 0.1,0 0.1,0 0.1,0 0.1,0 0.1,0 0.1,0 0.1,0 0.1,0 0.1,0 0.1,0 0.1,0 0.1,0 0.1,0 0.1,0 0.1,0 0.1,0 0.1,0 0.1,0 0.1,0 0.1,0 0.1,0 0.1,0 0.1,0 0.1,0 0.1,0 0.1,0 0.1,0 0.1,0 0.1,0 0.1,0 0.1,0 0.1,0 0.1,0 0.1,0 0.1,0 0.1,0 0.1,0 0.1,0 0.1,0 0.1,0 0.1,0 0.1,0 0.1,0 0.1,0 0.1,0 0.1,0 0.1,0 0.1,0 0.1,0 0.1,0 0.1,0 0.1,0 0.1,0 0.1,0 0.1,0 0.1,0 0.1,0 0.1,0 0.1,0 0.1,0 0.1,0 0.1,0 0.1,0 0.1,0 0.1,0 0.1,0 0.1,0 0.1,0 0.1,0 0.1,0 0.1,0 0.1,0 0.1,0 0.1,0 0.1,0 0.1,0 0.1,0 0.1,0 0.1,0 0.1,0 0.1,0 0.1,0 0.1,0 0.1,0 0.1,0 0.1,0 0.1,0 0.1,0 0.1,0 0.1,0 0.1,0 0.1,0 0.1,0 0.1,0 0.1,0 0.1,0 0.1,0 0.1,0 0.1,0 0.1,0 0.1,0 0.1,0 0.1,0 0.1,0 0.1,0 0.1,0 0.1,0 0.1,0 0.1,0 0.1,0 0.1,0 0.1,0 0.1,0 0.1,0 0.1,0 0.1,0 0.1,0 0.1,0 0.1,0 0.1,0 0.1,0 0.1,0 0.1,0 0.1,0 0.1,0 0.1,0 0.1,0 0.1,0 0.1,0 0.1,0 0.1,0 0.1,0 0.1,0 0.1,0 0.1,0 0.1,0 0.1,0 0.1,0 0.1,0 0.1,0 0.1,0 0.1,0 0.1,0 0.1,0 0.1,0 0.1,0 0.1,0 0.1,0 0.1,0 0.1,0 0.1,0 0.1,0 0.1,0 0.1,0 0.1,0 0.1,0 0.1,0 0.1,0 0.1,0 0.1,0 0.1,0 0.1,0 0.1,0 0.1,0 0.1,0 0.1,0 0.1,0 0.1,0 0.1,0 0.1,0 0.1,0 0.1,0 0.1,0 0.1,0 0.1,0 0.1,0 0.1,0 0.1,0 0.1,0 0.1,0 0.1,0 0.1,0 0.1,0 0.1,0 0.1,0 0.1,0 0.1,0 0.1,0 0.1,0 0.1,0 0.1,0 0.1,0 0.1,0 0.1,0 0.1,0 0.1,0 0.1,0 0.1,0 0.1,0 0.1,0 0.1,0 0.1,0 0.1,0 0.1,0 0.1,0 0.1,0 0.1,0 0.1,0 0.1,0 0.1,0 0.1,0 0.1,0 0.1,0 0.1,0 0.1,0 0.1,0 0.1,0 0.1,0 0.1,0 0.1,0 0.1,0 0.1,0 0.1,0 0.1,0 0.1,0 0.1,0 0.1,0 0.1,0 0.1,0 0.1,0 0.1,0 0.1,0 0.1,0 0.1,0 0.1,0 0.1,0 0.1,0 0.1,0 0.1,0 0.1,0 0.1,0 0.1,0 0.1,0 0.1,0 0.1,0 0.1,0 0.1,0 0.1,0 0.1,0 0.1,0 0.1,0 0.1,0 0.1,0 0.1,0 0.1,0 0.1,0 0.1,0 0.1,0 0.1,0 0.1,0 0.1,0 0.1,0 0.1,0 0.1,0 0.1,0 0.1,0 0.1,0 0.1,0 0.1,0 0.1,0 0.1,0 0.1,0 0.1,0 0.1,0 0.1,0 0.1,0 0.1,0 0.1,0 0.1,0 0.1,0 0.1,0 0.1,0 0.1,0 0.1,0 0.1,0 0.1,0 0.1,0 0.1,0 0.1,0 0.1,0 0.1,0 0.1,0 0.1,0 0.1,0 0.1,0 0.1,0 0.1,0 0.1,0 0.1,0 0.1,0 0.1,0 0.1,0 0.1,0 0.1,0 0.1,0 0.1,0 0.1,0 0.1,0 0.1,0 0.1,0 0.1,0 0.1,0 0.1,0 0.1,0 0.1,0 0.1,0 0.1,0 0.1,0 0.1,0 0.1,0 0.1,0 0.1,0 0.1,0 0.1,0 0.1,0 0.1,0 0.1,0 0.1,0 0.1,0 0.1,0 0.1,0 0.1,0 0.1,0 0.1,0 0.1,0 0.1,0 0.1,0 0.1,0 0.1,0 0.1,0 0.1,0 0.1,0 0.1,0 0.1,0 0.1,0 0.1,0 0.1,0 0.1,0 0.1,0 0.1,0 0.1,0 0.1,0 0.1,0 0.1,0 0.1,0 0.1,0 0.1,0 0.1,0 0.1,0 0.1,0 0.1,0 0.1,0 0.1,0 0.1,0 0.1,0 0.1,0 0.1,0 0.1,0 0.1,0 0.1,0 0.1,0 0.1,0 0.1,0 0.1,0 0.1,0 0.1,0 0.1,0 0.1,0 0.1,0 0.1,0 0.1,0 0.1,0 0.1,0 0.1,0 0.1,0 0.1,0 0.1,0 0.1,0 0.1,0 0.1,0 0.1,0 0.1,0 0.1,0 0.1,0 0.1,0 0.1,0 0.1,0 0.1,0 0.1,0 0.1,0 0.1,0 0.1,0 0.1,0 0.1,0 0.1,0 0.1,0 0.1,0 0.1,0 0.1,0 0.1,0 0.1,0 0.1,0 0.1,0 0.1,0 0.1,0 0.1,0 0.1,0 0.1,0 0.1,0 0.1,0 0.1,0 0.1,0 0.1,0 0.1,0 0.1,0 0.1,0 0.1,0 0.1,0 0.1,0 0.1,0 0.1,0 0.1,0 0.1,0 0.1,0 0.1,0 0.1,0 0.1,0 0.1,0 0.1,0 0.1,0 0.1,0 0.1,0 0.1,0 0.1,0 0.1,0 0.1,0 0.1,0 0.1,0 0.1,0 0.1,0 0.1,0 0.1,0 0.1,0 0.1,0 0.1,0 0.1,0 0.1,0 0.1,0 0.1,0 0.1,0 0.1,0 0.1,0 0.1,0 0.1,0 0.1,0 0.1,0 0.1,0 0.1,0 0.1,0 0.1,0 0.1,0 0.1,0 0.1,0 0.1,0 0.1,0 0.1,0 0.1,0 0.1,0 0.1,0 0.1,0 0.1,0 0.1,0 0.1,0 0.1,0 0.1,0 0.1,0 0.1,0 0.1,0 0.1,0 0.1,0 0.1,0 0.1,0 0.1,0 0.1,0 0.1,0 0.1,0 0.1,0 0.1,0 0.1,0 0.1,0 0.1,0 0.1,0 0.1,0 0.1,0 0.1,0 0.1,0 0.1,0 0.1,0 0.1,0 0.1,0 0.1,0 0.1,0 0.1,0 0.1,0 0.1,0 0.1,0 0.1,0 0.1,0 0.1,0 0.1,0 0.1,0 0.1,0 0.1,0 0.1,0 0.1,0 0.1,0 0.1,0 0.1,0 0.1,0 0.1,0 0.1,0 0.1,0 0.1,0 0.1,0 0.1,0 0.1,0 0.1,0 0.1,0 0.1,0 0.1,0 0.1,0 0.1,0 0.1,0 0.1,0 0.1,0 0.1,0 0.1,0 0.1,0 0.1,0 0.1,0 0.1,0 0.1,0 0.1,0 0.1,0 0.1,0 0.1,0 0.1,0 0.1,0 0.1,0 0.1,0 0.1,0 0.1,0 0.1,0 0.1,0 0.1,0 0.1,0 0.1,0 0.1,0 0.1,0 0.1,0 0.1,0 0.1,0 0.1,0 0.1,0 0.1,0 0.1,0 0.1,0 0.1,0 0.1,0 0.1,0 0.1,0 0.1,0 0.1,0 0.1,0 0.1,0 0.1,0 0.1,0 0.1,0 0.1,0 0.1,0 0.1,0 0.1,0 0.1,0 0.1,0 0.1,0 0.1,0 0.1,0 0.1,0 0.1,0 0.1,0 0.1,0 0.1,0 0.1,0 0.1,0 0.1,0 0.1,0 0.1,0 0.1,0 0.1,0 0.1,0 0.1,0 0.1,0 0.1,0 0.1,0 0.1,0 0.1,0 0.1,0 0.1,0 0.1,0 0.1,0 0.1,0 0.1,0 0.1,0 0.1,0 0.1,0 0.1,0 0.1,0 0.1,0 0.1,0 0.1,0 0.1,0 0.1,0 0.1,0 0.1,0 0.1,0 0.1,0 0.1,0 0.1,0 0.1,0 0.1,0 0.1,0 0.1,0 0.1,0 0.1,0 0.1,0 0.1,0 0.1,0 0.1,0 0.1,0 0.1,0 0.1,0 0.1,0 0.1,0 0.1,0 0.1,0 0.1,0 0.1,0 0.1,0 0.1,0 0.1,0 0.1,0 0.1,0 0.1,0 0.1,0 0.1,0 0.1,0 0.1,0 0.1,0 0.1,0 0.1,0 0.1,0 0.1,0 0.1,0 0.1,0 0.1,0 0.1,0 0.1,0 0.1,0 0.1,0 0.1,0 0.1,0 0.1,0 0.1,0 0.1,0 0.1,0 0.1,0 0.1,0 0.1,0 0.1,0 0.1,0 0.1,0 0.1,0 0.1,0 0.1,0 0.1,0 0.1,0 0.1,0 0.1,0 0.1,0 0.1,0 0.1,0 0.1,0 0.1,0 0.1,0 0.1,0 0.1,0 0.1,0 0.1,0 0.1,0 0.1,0 h 0.01" />
    </g>
  </g>
  <g
     inkscape:groupmode="layer"
     id="layer24"
     inkscape:label="cubic"
     style="display:none">
    <g
       transform="translate(139.85744,7.2269265)"
       style="color:#ff9900;fill:none;stroke:currentColor;stroke-width:2;stroke-linecap:butt;stroke-linejoin:miter;display:inline"
       id="g150">
      <path
         d="m 71.9,334.2 0.5,-9.7 0.5,1.5 0.5,-6.7 0.5,7.6 0.5,-6.4 0.5,20.1 0.5,-14.7 0.5,19.4 0.5,-10.2 0.4,6.2 0.5,-1.7 0.5,-0.4 0.5,-6.1 0.5,1.8 0.5,11.8 0.5,-5.7 0.5,-2.8 0.5,5.6 0.5,1 0.5,-2.5 0.5,-0.3 0.5,1.1 0.5,-12.7 0.5,-8.1 0.5,16.1 0.5,4.4 0.5,-8 0.4,-13.9 0.5,5 0.5,10.1 0.5,-13.5 0.5,17.7 0.5,-8.3 0.5,-4.1 0.5,5 0.5,3.6 0.5,-0.7 0.5,4 0.5,3.1 0.5,-8.1 0.5,1.2 0.5,-2.2 0.5,-8.9 0.5,2.9 0.5,7.7 0.5,-14.5 0.4,17.3 0.5,-16.4 0.5,10.6 0.5,-3.2 0.5,-4.4 0.5,1.9 0.5,0.9 0.5,-2.9 0.5,5.2 0.5,7.3 0.5,-4.7 0.5,-3.4 0.5,-3.6 0.5,-1.7 0.5,5.7 0.5,-6.3 0.5,-6.7 0.5,5.4 0.4,5.8 0.5,2.9 0.5,2 0.5,3.8 0.5,-7.1 0.5,-2.6 0.5,5.8 0.5,-5.7 0.5,-0.8 0.5,15.9 0.5,-4.6 0.5,3.1 0.5,2.4 0.5,-10.2 0.5,-5.5 0.5,12.1 0.5,-15.4 0.5,8 0.5,3.4 0.4,-0.7 0.5,-1.7 0.5,-1.2 0.5,0.5 0.5,-2.5 0.5,0.7 0.5,-3.2 0.5,13.8 0.5,-5.7 0.5,2.6 0.5,0.8 0.5,-1.1 0.5,9.2 0.5,-14.9 0.5,8 0.5,0 0.5,0.2 0.5,-4.8 0.4,-2.8 0.5,-2.3 0.5,5.5 0.5,-2.1 0.5,-2.2 0.5,2.4 0.5,7.2 0.5,-5.6 0.5,-0.5 0.5,3.5 0.5,9.3 0.5,-5.2 0.5,-9.1 0.5,1 0.5,2.4 0.5,-4.6 0.5,8.1 0.5,3.9 0.5,-0.9 0.4,0.2 0.5,-2.5 0.5,-3 0.5,0.7 0.5,2.1 0.5,-6.2 0.5,-4.3 0.5,6.6 0.5,1.1 0.5,-7.6 0.5,10 0.5,-5.9 0.5,-1.6 0.5,-3.3 0.5,4.8 0.5,-3.8 0.5,-1.5 0.5,0.8 0.4,1.1 0.5,8 0.5,4.1 0.5,-4.6 0.5,-0.9 0.5,1.6 0.5,1.9 0.5,-5.5 0.5,0.1 0.5,-3.4 0.5,6.6 0.5,-6.4 0.5,-3.6 0.5,-0.2 0.5,5.4 0.5,-4.5 0.5,-1.8 0.5,-0.1 0.5,-0.7 0.4,5.4 0.5,-4.9 0.5,2.3 0.5,1.2 0.5,-5.4 0.5,1.3 0.5,2.8 0.5,-0.8 0.5,0.2 0.5,-1 0.5,3.7 0.5,-6.8 0.5,6 0.5,2.4 0.5,-11.1 0.5,7.2 0.5,-5.5 0.5,-0.6 0.4,-1.8 0.5,1.7 0.5,3.2 0.5,5.6 0.5,-1.7 0.5,3.7 0.5,0.6 0.5,-0.4 0.5,-0.9 0.5,-3.8 0.5,1.2 0.5,0.3 0.5,-2.1 0.5,-1.3 0.5,-1.2 0.5,8.1 0.5,-2.3 0.5,-5.6 0.5,5.5 0.4,-0.7 0.5,-5.6 0.5,8.5 0.5,-6.1 0.5,0.5 0.5,0 0.5,8.5 0.5,-11.5 0.5,12 0.5,1.3 0.5,-12 0.5,4.2 0.5,-0.9 0.5,6.1 0.5,-7.6 0.5,3.9 0.5,1.4 0.5,-0.1 0.4,5 0.5,-2.5 0.5,-6.7 0.5,0.6 0.5,-3.5 0.5,0.7 0.5,1.5 0.5,3.2 0.5,-3.1 0.5,0.7 0.5,1.5 0.5,1.2 0.5,-1 0.5,-2.6 0.5,1.7 0.5,-0.3 0.5,-0.2 0.5,0.8 0.5,-0.9 0.4,1.1 0.5,0.9 0.5,1 0.5,-2.1 0.5,2.8 0.5,-0.1 0.5,2.3 0.5,-2 0.5,2.3 0.5,0.3 0.5,1.5 0.5,1.5 0.5,-3.5 0.5,-0.2 0.5,-2.3 0.5,3 0.5,-3.1 0.5,2.5 0.4,-0.9 0.5,-3.4 0.5,1.9 0.5,1.2 0.5,1 0.5,-3 0.5,-0.4 0.5,1.8 0.5,5.7 0.5,-4.6 0.5,-1.8 0.5,0.2 0.5,2.8 0.5,-5.2 0.5,0.6 0.5,2.4 0.5,-0.1 0.5,-2.3 0.5,2 0.4,2.6 0.5,0.2 0.5,2.8 0.5,-1.5 0.5,-0.7 0.5,-0.3 0.5,6.4 0.5,-8 0.5,7.9 0.5,-6.8 0.5,1.8 0.5,-5.2 0.5,11.2 0.5,-5.3 0.5,-4.2 0.5,-0.7 0.5,6.5 0.5,-2 0.4,0.4 0.5,-5 0.5,2.3 0.5,1.2 0.5,-4.5 0.5,1.5 0.5,-1 0.5,7.7 0.5,-2.6 0.5,-5.7 0.5,9.9 0.5,-4.4 0.5,0.3 0.5,-7.7 0.5,6.7 0.5,1.1 0.5,-0.2 0.5,-0.4 0.5,0.6 0.4,-5.6 0.5,1.1 0.5,2.1 0.5,-2.9 0.5,6.2 0.5,-1.2 0.5,-4.5 0.5,-1.2 0.5,4.1 0.5,-2.2 0.5,-1.5 0.5,0.3 0.5,5.9 0.5,-3.9 0.5,-2.9 0.5,4.7 0.5,-1.2 0.5,0.9 0.4,-3.2 0.5,2.7 0.5,1.7 0.5,-4.9 0.5,2.3 0.5,4.9 0.5,-4.1 0.5,3.4 0.5,1.1 0.5,-2.3 0.5,4.9 0.5,-2.6 0.5,1 0.5,0.1 0.5,-0.5 0.5,1.7 0.5,-0.2 0.5,-3.6 0.5,1.1 0.4,2.7 0.5,-1.4 0.5,-3 0.5,-1.6 0.5,-0.7 0.5,-1.1 0.5,2 0.5,2 0.5,-1.3 0.5,-0.8 0.5,1.3 0.5,-0.6 0.5,-2.1 0.5,2.3 0.5,6.8 0.5,-1 0.5,1.9 0.5,-2.6 0.4,1 0.5,3 0.5,-1.1 0.5,-0.3 0.5,-2 0.5,2.4 0.5,0.3 0.5,-0.6 0.5,-2.1 0.5,-5 0.5,2.7 0.5,-2.4 0.5,1 0.5,0.8 0.5,4.8 0.5,-3.1 0.5,3.2 0.5,-1.2 0.5,1.3 0.4,6.6 0.5,-8.9 0.5,3.8 0.5,-3 0.5,3.5 0.5,5.6 0.5,-8 0.5,0.2 0.5,-7 0.5,2.4 0.5,-0.4 0.5,-1.4 0.5,1.4 0.5,-0.3 0.5,6 0.5,-5.8 0.5,0.2 0.5,6.5 0.4,-6.3 0.5,4.8 0.5,-4.8 0.5,-0.9 0.5,0.3 0.5,6.2 0.5,-7.5 0.5,7 0.5,-0.2 0.5,-1 0.5,-3.8 0.5,2.1 0.5,5.1 0.5,-6.4 0.5,-0.7 0.5,0 0.5,0.8 0.5,7 0.5,-7.7 0.4,2.2 0.5,-1.7 0.5,8 0.5,1.2 0.5,-6.9 0.5,6.4 0.5,-5.8 0.5,-0.7 0.5,-1.4 0.5,-0.4 0.5,-0.5 0.5,7.7 0.5,-5.6 0.5,-0.4 0.5,-1.7 0.5,8.4 0.5,-8.4 0.5,7.9 0.4,-0.4 0.5,-6.2 0.5,12.8 0.5,-6.8 0.5,1.7 0.5,-1.2 0.5,1.7 0.5,8 0.5,0.8 0.5,-6.1 0.5,5.9 0.5,-8 0.5,-0.2 0.5,0.4 0.5,8.8 0.5,-6.5 0.5,5.6 0.5,0.9 0.5,-7.1 0.4,-1.1 0.5,8.9 0.5,-0.8 0.5,0.8 0.5,-7.9 0.5,2.3 0.5,-1.7 0.5,6.2 0.5,-0.8 0.5,-8.8 0.5,0.7 0.5,7.6 0.5,1 0.5,-6.5 0.5,-1.4 0.5,19.2 0.5,-12.4 0.5,-1 0.4,0.9 0.5,-0.2 0.5,-0.4 0.5,3.7 0.5,9.7 0.5,-18.1 0.5,-2.1 0.5,1.2 0.5,-0.5 0.5,2.5 0.5,-3 0.5,-0.5 0.5,2 0.5,0.7 0.5,-2 0.5,4.9 0.5,-0.4 0.5,1.9 0.5,-1.3 0.4,4.8 0.5,-1.7 0.5,3.5 0.5,-0.5 0.5,0.3 0.5,-6.5 0.5,-0.3 0.5,1.5 0.5,-1.6 0.5,-0.9 0.5,6.7 0.5,2.3 0.5,-1.1 0.5,-8.7 0.5,0.9 0.5,1.4 0.5,0.3 0.5,-1 0.4,3 0.5,-2.3 0.5,-0.9 0.5,1.1 0.5,2 0.5,0.1 0.5,-0.9 0.5,2.4 0.5,-1.3 0.5,0 0.5,1.3 0.5,-0.5 0.5,2.3 0.5,-1 0.5,0.2 0.5,0.3 0.5,0.1 0.5,-1.5 0.5,0.7 0.4,-0.4 0.5,1.5 0.5,-1.3 0.5,0.4 0.5,-0.2 0.5,-0.5 0.5,0.4 0.5,-0.8 0.5,0.2 0.5,0.2 0.5,0.6 0.5,-0.3 0.5,0.4 0.5,0 0.5,-0.9 0.5,0.6 0.5,-1.1 0.5,1.4 0.4,1.3 0.5,-1.4 0.5,1.1 0.5,-1.3 0.5,0.3 0.5,2.2 0.5,-0.5 0.5,-0.2 0.5,-1.7 0.5,3.7 0.5,-2.2 0.5,-0.3 0.5,0.2 0.5,0.2 0.5,0.4 0.5,-0.6 0.5,0.6 0.5,1.4 0.5,-1.8 0.4,0.6 0.5,6.2 0.5,-11.6 0.5,11.3 0.5,-10.8 0.5,6.8 0.5,-0.6 0.5,1.1 0.5,0.4 0.5,0.9 0.5,-1.6 0.5,-0.3 0.5,0.5 0.5,1.3 0.5,-2.1 0.5,0.2 0.5,1.9 0.5,-2.4 0.4,2.2 0.5,-0.2 0.5,1 0.5,-0.8 0.5,0.9 0.5,-0.1 0.5,0.7 0.5,-1.2 0.5,-2.3 0.5,0.2 0.5,1.9 0.5,-1.8 0.5,0 0.5,1.5 0.5,-1.5 0.5,1.1 0.5,0.6 0.5,-1.4 0.5,-1 0.4,-0.1 0.5,0.2 0.5,-2.8 0.5,1.5 0.5,1.9 0.5,0.4 0.5,-0.6 0.5,-0.8 0.5,-3.9 0.5,4.3 0.5,-1.4 0.5,1.9 0.5,0.2 0.5,0 0.5,-0.5 0.5,0.6 0.5,0.1 0.5,-0.5 0.4,2.2 0.5,-1.2 0.5,-0.7 0.5,1 0.5,0.7 0.5,-1 0.5,0.7 0.5,-0.1 0.5,0.6 0.5,2.9 0.5,-0.4 0.5,0.4 0.5,0.2 0.5,0.4 0.5,-1.3 0.5,2.7 0.5,-0.4 0.5,-2.8 0.5,1.6 0.4,-0.1 0.5,-0.1 0.5,0.3 0.5,-0.7 0.5,2.5 0.5,-1.2 0.5,0.9 0.5,-2.5 0.5,2.2 0.5,0.7 0.5,-0.5 0.5,1.2 0.5,0.2 0.5,0 0.5,0.6 0.5,-0.6 0.5,1.2 0.5,0.5 0.4,-1 0.5,1.4 0.5,-0.2 0.5,-0.4 0.5,0.5 0.5,0 0.5,-1.1 0.5,-1.1 0.5,1.7 0.5,-2 0.5,1.9 0.5,-0.2 0.5,-1.8 0.5,2.3 0.5,0.3 0.5,0.3 0.5,-1 0.5,1 0.5,-0.1 0.4,-0.3 0.5,1.7 0.5,0.8 0.5,-2.5 0.5,2.2 0.5,1.8 0.5,-1.5 0.5,-0.2 0.5,1.7 0.5,-0.8 0.5,0.4 0.5,-1.8 0.5,0.4 0.5,1 0.5,-1.3 0.5,-0.2 0.5,0.7 0.5,-1.9 0.4,-2.5 0.5,1.1 0.5,-0.2 0.5,0.6 0.5,-1.1 0.5,-0.5 0.5,2.8 0.5,-0.6 0.5,2.6 0.5,-3.1 0.5,0.1 0.5,1.8 0.5,0 0.5,0.5 0.5,-0.4 0.5,0.8 0.5,-1.4 0.5,0.4 0.5,0.9 0.4,-1 0.5,0.6 0.5,-0.1 0.5,-0.8 0.5,-0.9 0.5,1.4 0.5,-2.1 0.5,2.8 0.5,3 0.5,-1.5 0.5,1.2 0.5,-1.6 0.5,3.1 0.5,-0.7 0.5,1.2 0.5,0.1 0.5,-0.3 0.5,0.6 0.4,0.3 0.5,0.6 0.5,-1.5 0.5,1 0.5,1.7 0.5,1.2 0.5,-0.5 0.5,0.1 0.5,-1.6 0.5,0.1 0.5,0.1 0.5,0.1 0.5,-1.4 0.5,1.4 0.5,0.6 0.5,-0.1 0.5,0.7 0.5,0.8 0.5,3.5 0.4,-4.2 0.5,1 0.5,-0.4 0.5,1.2 0.5,2.1 0.5,0.4 0.5,0.3 0.5,1.3 0.5,-1.1 0.5,0.6 0.5,-4.2 0.5,-1.1 0.5,-0.2 0.5,1.3 0.5,-0.3 0.5,0.2 0.5,-0.9 0.5,0.6 0.4,0.6 0.5,-0.7 0.5,2.4 0.5,1.3 0.5,-0.1 0.5,-0.3 0.5,0.7 0.5,-1.2 0.5,0.5 0.5,0.2 0.5,-1.3 0.5,1.9 0.5,-2.1 0.5,1.5 0.5,2.2 0.5,-2.5 0.5,1.4 0.5,-0.8 0.5,-1.2 0.4,1.1 0.5,-1 0.5,-0.3 0.5,0.4 0.5,3.4 0.5,-0.8 0.5,0.2 0.5,1 0.5,-1.7 0.5,-1.4 0.5,-11.7 0.5,-2.7 0.5,0.5 0.5,-0.3 0.5,0.9 0.5,-0.9 0.5,-0.9 0.5,1.5 0.4,-2.9 0.5,1.5 0.5,-1.1 0.5,0.1 0.5,1.1 0.5,-1 0.5,0.7 0.5,-0.6 0.5,0.4 0.5,2.3 0.5,-0.4 0.5,0.6 0.5,-0.2 0.5,0.4 0.5,1.6 0.5,0.1 0.5,3 0.5,-1.6 0.5,1.1 0.4,0.3 0.5,-1.4 0.5,1.1 0.5,-1.7 0.5,0 0.5,1.3 0.5,-2.4 0.5,1.2 0.5,0.7 0.5,-1.9 0.5,2.3 0.5,-1 0.5,-0.8 0.5,0.8 0.5,0.1 0.5,0.3 0.5,-1.5 0.5,0 0.4,2.1 0.5,3.6 0.5,-0.8 0.5,3.4 0.5,-3.4 0.5,0.9 0.5,-0.1 0.5,-0.4 0.5,1.4 0.5,-1.3 0.5,0.2 0.5,1.4 0.5,-2.5 0.5,5.6 0.5,0.6 0.5,0.3 0.5,-2.3 0.5,1.4 0.5,0.8 0.4,-7.2 0.5,1.2 0.5,0.4 0.5,0.8 0.5,5.2 0.5,-4.3 0.5,1 0.5,-1.1 0.5,-0.8 0.5,10.2 0.5,-7.2 0.5,-0.7 0.5,1.4 0.5,1.8 0.5,-2.6 0.5,-0.5 0.5,1.7 0.5,-0.6 0.4,8.9 0.5,-6.4 0.5,6.7 0.5,-4.8 0.5,-3.7 0.5,5.9 0.5,-4.9 0.5,5.8 0.5,1.1 0.5,-7.4 0.5,-0.4 0.5,6.5 0.5,-3.3 0.5,1 0.5,-4.8 0.5,6.7 0.5,-3.3 0.5,-0.8 0.5,-2.5 0.4,4.6 0.5,-5.4 0.5,4 0.5,2.1 0.5,0.7 0.5,-1.5 0.5,-5.3 0.5,3.7 0.5,0.6 0.5,-1.3 0.5,-3.9 0.5,-0.4 0.5,6.4 0.5,-1.5 0.5,-6.3 0.5,4.8 0.5,1.3 0.5,0.3 0.4,2.6 0.5,0.2 0.5,-5.9 0.5,9.2 0.5,-2.1 0.5,-0.7 0.5,-2.2 0.5,-0.1 0.5,1.9 0.5,0.6 0.5,-1.6 0.5,2 0.5,-6.3 0.5,3.6 0.5,-4.5 0.5,5.6 0.5,-7.7 0.5,3.2 0.5,4.9 0.4,-5.2 0.5,4.2 0.5,0.5 0.5,-3.5 0.5,2.6 0.5,-1.6 0.5,-0.4 0.5,2.3 0.5,1.1 0.5,1.3 0.5,-1.2 0.5,1.6 0.5,-1.2 0.5,4 0.5,-3.9 0.5,0.4 0.5,-1.9 0.5,2.7 0.4,-2.6 0.5,1.7 0.5,0 0.5,2.7 0.5,5.7 0.5,0.1 0.5,-2.7 0.5,3.2 0.5,-1 0.5,0.6 0.5,-3.3 0.5,0.6 0.5,-3.2 0.5,6.4 0.5,-3.8 0.5,-0.3 0.5,2.2 0.5,0.2 0.5,3.9 0.4,-3.7 0.5,2.8 0.5,-3.4 0.5,1 0.5,-0.3 0.5,-1.5 0.5,0.6 0.5,3.1 0.5,0 0.5,-8.6 0.5,5.7 0.5,2.7 0.5,0 0.5,0.3 0.5,1.8 0.5,-0.7 0.5,-2.3 0.5,0 0.4,-0.5 0.5,-0.5 0.5,0 0.5,1.9 0.5,-0.8 0.5,1.1 0.5,-2.1 0.5,0.4 0.5,1.7 0.5,-1.9 h 0.01"
         id="path152"
         inkscape:connector-curvature="0"
         style="stroke:#ff9900" />
    </g>
    <text
       xml:space="preserve"
       style="font-size:15px;font-style:normal;font-variant:normal;font-weight:normal;font-stretch:normal;text-align:start;line-height:100%;letter-spacing:0px;word-spacing:0px;writing-mode:lr-tb;text-anchor:start;fill:#804000;fill-opacity:0.82352941;stroke:none;display:inline;font-family:Nimbus Sans L;-inkscape-font-specification:'Nimbus Sans L, Normal'"
       x="368.79367"
       y="323.18033"
       id="text4470"
       sodipodi:linespacing="100%"
       transform="matrix(0.98661011,0.16309619,-0.16309619,0.98661011,139.85744,7.2269265)"><tspan
         sodipodi:role="line"
         id="tspan4472"
         x="368.79367"
         y="323.18033"
         style="font-size:20px">Cubic</tspan></text>
  </g>
  <g
     inkscape:groupmode="layer"
     id="layer25"
     inkscape:label="codel"
     style="display:none">
    <text
       xml:space="preserve"
       style="font-size:14.76383495px;font-style:normal;font-variant:normal;font-weight:normal;font-stretch:normal;text-align:start;line-height:100%;letter-spacing:0px;word-spacing:0px;writing-mode:lr-tb;text-anchor:start;fill:#008080;fill-opacity:0.82352941;stroke:none;display:inline;font-family:Nimbus Sans L;-inkscape-font-specification:'Nimbus Sans L, Normal'"
       x="332.64587"
       y="128.34091"
       id="text4466"
       sodipodi:linespacing="100%"
       transform="matrix(0.91859849,0.40822989,-0.41466932,0.90433352,139.85744,7.2269263)"><tspan
         sodipodi:role="line"
         id="tspan4468"
         x="332.64587"
         y="128.34091"
         style="font-size:19.685112px">Cubic-over-sfqCoDel</tspan></text>
    <g
       transform="translate(139.85744,7.2269263)"
       id="g157"
       style="color:#0099a1;fill:none;stroke:#008080;stroke-width:2;stroke-linecap:butt;stroke-linejoin:miter;stroke-opacity:1;display:inline">
      <path
         style="stroke:#008080;stroke-opacity:1"
         inkscape:connector-curvature="0"
         id="path159"
         d="m 71.9,193.4 0.5,-0.8 0.5,1.5 0.5,-0.6 0.5,2.2 0.5,0.2 0.5,-3.7 0.5,1.8 0.5,-0.1 0.5,-1.3 0.4,1.2 0.5,0 0.5,0.6 0.5,-1.1 0.5,-0.6 0.5,2.2 0.5,-1.2 0.5,-1.6 0.5,1.6 0.5,-0.6 0.5,0.5 0.5,-0.2 0.5,2.2 0.5,0 0.5,-0.2 0.5,-0.2 0.5,0.5 0.5,0.9 0.4,-0.1 0.5,-2.9 0.5,-0.3 0.5,2.7 0.5,0.5 0.5,-1.8 0.5,0.6 0.5,-1.7 0.5,2.4 0.5,-1.4 0.5,-0.3 0.5,1.7 0.5,0.1 0.5,-1.2 0.5,-1.2 0.5,0 0.5,-0.4 0.5,2.8 0.5,3.2 0.4,-3.3 0.5,1.3 0.5,-1.5 0.5,0.3 0.5,1.1 0.5,1 0.5,-2.6 0.5,2 0.5,0.5 0.5,-0.6 0.5,-0.4 0.5,0.3 0.5,2.4 0.5,-2.1 0.5,0 0.5,-1.4 0.5,2.2 0.5,0.6 0.4,-2.6 0.5,1 0.5,2.5 0.5,-3.4 0.5,0.4 0.5,0.5 0.5,0.1 0.5,0 0.5,0.9 0.5,-2 0.5,1.2 0.5,2.1 0.5,-0.8 0.5,-0.3 0.5,1.8 0.5,-3.5 0.5,-0.8 0.5,0.8 0.5,1.6 0.4,-0.1 0.5,-2.3 0.5,1.2 0.5,-0.1 0.5,2.7 0.5,-0.4 0.5,1.4 0.5,-2.3 0.5,-0.4 0.5,1.1 0.5,1.1 0.5,-3 0.5,1.7 0.5,-0.1 0.5,1.6 0.5,0 0.5,-0.6 0.5,-0.9 0.4,0.6 0.5,-0.2 0.5,2.3 0.5,-0.4 0.5,-3.6 0.5,6.1 0.5,-2.1 0.5,0.7 0.5,-3 0.5,2.2 0.5,-1 0.5,0.9 0.5,-1.3 0.5,0.3 0.5,-0.5 0.5,0.1 0.5,0.7 0.5,-1.2 0.5,0.3 0.4,2.5 0.5,-1.1 0.5,0.8 0.5,0.3 0.5,0.5 0.5,0.5 0.5,-1.4 0.5,-0.5 0.5,0.6 0.5,1.1 0.5,-3 0.5,0.3 0.5,1.5 0.5,1.4 0.5,0 0.5,-1.3 0.5,0.5 0.5,1.1 0.4,-0.6 0.5,-0.7 0.5,2.1 0.5,-1.1 0.5,0.4 0.5,2.4 0.5,0.4 0.5,-2.1 0.5,3.2 0.5,-3.6 0.5,-0.5 0.5,0.8 0.5,0.5 0.5,1.2 0.5,-1.9 0.5,-1.1 0.5,2 0.5,-0.4 0.5,1.7 0.4,-1.3 0.5,-0.3 0.5,0 0.5,2.9 0.5,-2.2 0.5,0.7 0.5,0.2 0.5,0.4 0.5,2.2 0.5,-1.1 0.5,-2.2 0.5,3.3 0.5,-3.3 0.5,2.2 0.5,0.2 0.5,-2.3 0.5,1.9 0.5,0.6 0.4,1.3 0.5,-2.5 0.5,-0.1 0.5,2.4 0.5,1.1 0.5,-2.2 0.5,0.6 0.5,0.6 0.5,-1.3 0.5,1.6 0.5,0.2 0.5,-1.2 0.5,1.1 0.5,-2.1 0.5,2.3 0.5,1.1 0.5,1.1 0.5,-2.8 0.5,-2.8 0.4,2.8 0.5,2.1 0.5,-1.9 0.5,-0.4 0.5,1.2 0.5,0.2 0.5,2.3 0.5,-2.3 0.5,0.4 0.5,1.4 0.5,-1.4 0.5,-0.7 0.5,-0.4 0.5,0.8 0.5,1.9 0.5,-0.7 0.5,-0.8 0.5,1.2 0.4,0.7 0.5,0.4 0.5,-1.6 0.5,0 0.5,3.2 0.5,-2.4 0.5,-0.1 0.5,-0.8 0.5,0.1 0.5,2 0.5,0.6 0.5,-2.6 0.5,2 0.5,1.8 0.5,-1.3 0.5,-0.4 0.5,0.2 0.5,-0.2 0.5,-0.7 0.4,-0.1 0.5,1.4 0.5,-0.5 0.5,1.8 0.5,-0.5 0.5,1.3 0.5,0.9 0.5,-2.7 0.5,2 0.5,-2.1 0.5,2.7 0.5,-1.6 0.5,0.1 0.5,1.2 0.5,0 0.5,0.7 0.5,0.4 0.5,-2.1 0.4,4.9 0.5,-1.9 0.5,1.4 0.5,-0.8 0.5,1.6 0.5,-2.6 0.5,1.5 0.5,-0.3 0.5,0 0.5,0.8 0.5,-3.9 0.5,0.7 0.5,2.5 0.5,1 0.5,-2.9 0.5,4.3 0.5,-0.8 0.5,-1.4 0.5,-0.5 0.4,1 0.5,-1.3 0.5,0.4 0.5,0.3 0.5,0 0.5,0.5 0.5,1.4 0.5,0.1 0.5,-0.9 0.5,1.7 0.5,-2.2 0.5,2.3 0.5,-0.9 0.5,0 0.5,-1.1 0.5,2.2 0.5,-0.8 0.5,-0.4 0.4,0.9 0.5,1.8 0.5,-1.7 0.5,-1.2 0.5,2 0.5,3.6 0.5,-3 0.5,0.4 0.5,2.1 0.5,-1.4 0.5,-1.3 0.5,-1 0.5,1.4 0.5,0.5 0.5,-0.2 0.5,0.4 0.5,-1.2 0.5,0.4 0.5,0.5 0.4,-1.7 0.5,-2.1 0.5,2.4 0.5,1.3 0.5,0 0.5,2.3 0.5,-0.5 0.5,2 0.5,-3 0.5,1.8 0.5,-1.1 0.5,0.5 0.5,-1.1 0.5,3.1 0.5,-1.8 0.5,2 0.5,-0.8 0.5,-1 0.4,1.3 0.5,-2 0.5,2.2 0.5,0.4 0.5,1.6 0.5,0.1 0.5,-0.2 0.5,-1.8 0.5,0.1 0.5,1.8 0.5,-3.9 0.5,0.3 0.5,0.3 0.5,2 0.5,-3.4 0.5,2.4 0.5,1.5 0.5,-0.2 0.5,0.2 0.4,1 0.5,-0.2 0.5,-2.4 0.5,2.4 0.5,-0.2 0.5,-0.7 0.5,1.4 0.5,-0.6 0.5,1 0.5,-0.2 0.5,-0.3 0.5,-0.7 0.5,2.3 0.5,-0.8 0.5,0.8 0.5,0.5 0.5,0.6 0.5,-0.9 0.4,1.5 0.5,-0.3 0.5,-1.1 0.5,0.2 0.5,1.6 0.5,-2.6 0.5,-0.2 0.5,1.5 0.5,2.7 0.5,-0.8 0.5,-2.5 0.5,0.8 0.5,0.9 0.5,-0.6 0.5,-0.1 0.5,-0.1 0.5,-1.2 0.5,3.2 0.5,-1.9 0.4,2 0.5,-1.5 0.5,-0.7 0.5,-1.8 0.5,3.9 0.5,-1 0.5,1.3 0.5,-2.6 0.5,2.8 0.5,-0.3 0.5,0.8 0.5,1.7 0.5,-2.4 0.5,0.4 0.5,-0.5 0.5,-1.1 0.5,3 0.5,0.2 0.4,-1.5 0.5,0.3 0.5,-0.6 0.5,0.1 0.5,1.5 0.5,-0.3 0.5,-0.7 0.5,1.2 0.5,0.2 0.5,-1.5 0.5,1 0.5,-1 0.5,1.7 0.5,-1.9 0.5,3.1 0.5,-0.3 0.5,-1 0.5,1.5 0.5,1.1 0.4,0.1 0.5,-0.6 0.5,-1.7 0.5,1.5 0.5,-1.1 0.5,-0.9 0.5,1.1 0.5,0.4 0.5,-0.6 0.5,0.7 0.5,-1.7 0.5,1.4 0.5,0.3 0.5,1.5 0.5,-1.7 0.5,-0.6 0.5,1.2 0.5,1.2 0.4,0 0.5,1.6 0.5,-2.4 0.5,1 0.5,-1.1 0.5,0.5 0.5,0.5 0.5,2.1 0.5,-0.3 0.5,0.9 0.5,0.3 0.5,-1.3 0.5,2.3 0.5,-2 0.5,-1.4 0.5,2.7 0.5,-0.6 0.5,0 0.5,3.1 0.4,-1.6 0.5,-0.7 0.5,3.1 0.5,-0.8 0.5,-0.2 0.5,-0.8 0.5,1.5 0.5,2.5 0.5,-0.3 0.5,-1.1 0.5,-0.2 0.5,0.7 0.5,-0.3 0.5,0.1 0.5,-2.2 0.5,0.5 0.5,1.4 0.5,1.8 0.4,-0.9 0.5,1.1 0.5,-1.2 0.5,2.2 0.5,-1.4 0.5,1.4 0.5,-0.7 0.5,-0.6 0.5,1.6 0.5,-2.3 0.5,0 0.5,1.8 0.5,-0.3 0.5,-0.2 0.5,-0.2 0.5,-0.1 0.5,2.2 0.5,-0.8 0.5,0.3 0.4,0.2 0.5,0.4 0.5,-0.6 0.5,0.5 0.5,-0.1 0.5,0.7 0.5,-0.2 0.5,1.7 0.5,-0.7 0.5,-0.7 0.5,1 0.5,0.1 0.5,-1.9 0.5,0.7 0.5,0.9 0.5,0 0.5,0.5 0.5,0.1 0.4,0.2 0.5,-1.5 0.5,2.7 0.5,-1.5 0.5,-0.4 0.5,0.3 0.5,0.6 0.5,3 0.5,-4.1 0.5,4.1 0.5,0.5 0.5,-1.7 0.5,2.4 0.5,-0.9 0.5,-0.7 0.5,1.3 0.5,-0.8 0.5,0.4 0.5,-0.8 0.4,1.8 0.5,0.5 0.5,-0.9 0.5,-0.1 0.5,1.3 0.5,-1 0.5,-2 0.5,0.4 0.5,-0.2 0.5,3.3 0.5,-2.1 0.5,1.3 0.5,-1.1 0.5,0.2 0.5,-0.8 0.5,2.3 0.5,-1.3 0.5,0.1 0.4,1.1 0.5,-1.5 0.5,2.4 0.5,-1.5 0.5,-0.6 0.5,2.8 0.5,-1.6 0.5,0.6 0.5,-0.1 0.5,4.7 0.5,-0.2 0.5,-1.2 0.5,3.3 0.5,-2.5 0.5,1.7 0.5,0.5 0.5,1.9 0.5,-1.6 0.5,1.3 0.4,-2 0.5,-0.1 0.5,1 0.5,-0.3 0.5,0.1 0.5,0.3 0.5,1.4 0.5,-2.6 0.5,0.4 0.5,0.7 0.5,1 0.5,-0.5 0.5,-3.4 0.5,3.9 0.5,0.4 0.5,-1 0.5,-0.1 0.5,-1.5 0.4,2.6 0.5,-1.4 0.5,0 0.5,0.5 0.5,1.1 0.5,-0.8 0.5,0.7 0.5,1.1 0.5,0.1 0.5,-0.6 0.5,1.4 0.5,0.4 0.5,-0.9 0.5,1.5 0.5,-2.7 0.5,0.7 0.5,1 0.5,0.9 0.5,0.6 0.4,-2 0.5,0.5 0.5,-1 0.5,2.1 0.5,0.4 0.5,-0.6 0.5,-0.2 0.5,-1.5 0.5,2.3 0.5,-0.7 0.5,0 0.5,-0.2 0.5,2.4 0.5,1.3 0.5,0.9 0.5,-2.3 0.5,1.1 0.5,-1.1 0.4,-1 0.5,0.3 0.5,1.9 0.5,-1.5 0.5,4.3 0.5,-2.1 0.5,0 0.5,-1 0.5,-1.7 0.5,0.9 0.5,4.3 0.5,-1 0.5,-0.1 0.5,0.3 0.5,1.6 0.5,1.7 0.5,-0.3 0.5,2.5 0.5,-2.6 0.4,1.3 0.5,1.3 0.5,-1.1 0.5,-0.1 0.5,-0.9 0.5,1 0.5,-1.5 0.5,1.6 0.5,1.5 0.5,1.2 0.5,-1.6 0.5,-2.4 0.5,1.5 0.5,0.3 0.5,3.6 0.5,-3 0.5,0 0.5,6 0.4,0.2 0.5,2.3 0.5,-0.6 0.5,0.9 0.5,-1.9 0.5,0.7 0.5,-1.4 0.5,1.3 0.5,-1.3 0.5,-0.8 0.5,0.8 0.5,0.1 0.5,3.7 0.5,-0.3 0.5,-1.2 0.5,-0.7 0.5,-1.9 0.5,2.8 0.5,0.1 0.4,-0.9 0.5,5.9 0.5,-3.6 0.5,-0.9 0.5,0.9 0.5,0.7 0.5,-0.8 0.5,2.2 0.5,-1 0.5,1.6 0.5,-1.1 0.5,-1.1 0.5,0.4 0.5,0.3 0.5,0.7 0.5,-0.5 0.5,2 0.5,1.4 0.4,-3.1 0.5,4.9 0.5,-4.3 0.5,3.3 0.5,0.6 0.5,-0.8 0.5,-1.4 0.5,2.2 0.5,1.2 0.5,-1.9 0.5,-1.5 0.5,1.7 0.5,2.4 0.5,-3.2 0.5,2.1 0.5,-1.1 0.5,2.7 0.5,-1.3 0.5,1.2 0.4,-1.5 0.5,-0.4 0.5,-0.7 0.5,1 0.5,0.1 0.5,0.6 0.5,0.2 0.5,-0.2 0.5,-1.5 0.5,3.7 0.5,-0.5 0.5,0.6 0.5,-1.5 0.5,1.5 0.5,0.6 0.5,-0.9 0.5,-0.1 0.5,1.5 0.4,-1.6 0.5,1.9 0.5,1.2 0.5,0.4 0.5,1.4 0.5,-1.3 0.5,1.2 0.5,0.7 0.5,0.9 0.5,0.7 0.5,0.6 0.5,0.8 0.5,1 0.5,-2 0.5,3.4 0.5,-1.5 0.5,0 0.5,1.3 0.5,0.5 0.4,0.9 0.5,0.5 0.5,-0.3 0.5,0.8 0.5,-0.9 0.5,1.1 0.5,2.2 0.5,-0.8 0.5,3.2 0.5,-3.8 0.5,1.3 0.5,2.9 0.5,-3.5 0.5,2.2 0.5,2.3 0.5,-0.5 0.5,-1.4 0.5,0.1 0.4,2.4 0.5,1.1 0.5,-0.5 0.5,-0.8 0.5,-1.3 0.5,1.9 0.5,0.3 0.5,-0.2 0.5,-0.6 0.5,2 0.5,0 0.5,0.1 0.5,0.6 0.5,-2.9 0.5,0 0.5,0.7 0.5,1.7 0.5,0.4 0.5,2.1 0.4,-5.4 0.5,2.3 0.5,-1.1 0.5,1.4 0.5,0.5 0.5,-0.5 0.5,0.2 0.5,0.8 0.5,-0.8 0.5,2.2 0.5,-1.2 0.5,2 0.5,0.1 0.5,1.2 0.5,-3.7 0.5,3.1 0.5,-5.1 0.5,1.9 0.4,0.6 0.5,2.7 0.5,-3.3 0.5,3.7 0.5,-3.1 0.5,2.2 0.5,1.3 0.5,0.5 0.5,1.4 0.5,-2.5 0.5,-0.8 0.5,2.9 0.5,-0.2 0.5,1.4 0.5,-4 0.5,2.2 0.5,-0.1 0.5,2.9 0.5,-2.2 0.4,1.8 0.5,-1.1 0.5,4.4 0.5,-2.5 0.5,-0.1 0.5,-0.5 0.5,-3.5 0.5,2.6 0.5,0.6 0.5,-1.6 0.5,0.8 0.5,3 0.5,-1.5 0.5,4.8 0.5,0.7 0.5,-0.4 0.5,-1.5 0.5,2.9 0.4,0 0.5,-0.2 0.5,-0.9 0.5,-1.7 0.5,-0.2 0.5,2.7 0.5,-3.2 0.5,2.1 0.5,0.5 0.5,-1.2 0.5,2.4 0.5,1.9 0.5,0.1 0.5,-3.5 0.5,3.3 0.5,1.6 0.5,-1.8 0.5,0.4 0.5,-3.8 0.4,3 0.5,-0.3 0.5,-1.3 0.5,2.8 0.5,-3.2 0.5,2.4 0.5,-0.1 0.5,-2.6 0.5,-1.2 0.5,1.3 0.5,1.9 0.5,0.5 0.5,0.7 0.5,-3.3 0.5,0.7 0.5,2 0.5,0.2 0.5,-1 0.4,1.2 0.5,3.4 0.5,-1.8 0.5,2.2 0.5,2.1 0.5,-1.2 0.5,-1.3 0.5,-1.9 0.5,-0.5 0.5,-0.5 0.5,0.5 0.5,0.6 0.5,0.8 0.5,-2.2 0.5,2.6 0.5,-1.7 0.5,-0.9 0.5,-2.2 0.5,-1.8 0.4,3.6 0.5,-3.2 0.5,5.6 0.5,1.1 0.5,-0.1 0.5,-0.4 0.5,4.3 0.5,-4.3 0.5,2.3 0.5,1.2 0.5,1.4 0.5,-0.7 0.5,-0.1 0.5,-0.9 0.5,0.7 0.5,1.3 0.5,0.3 0.5,-1.7 0.4,-0.4 0.5,2.7 0.5,1.5 0.5,0.4 0.5,3.1 0.5,-0.7 0.5,-0.2 0.5,0.8 0.5,1.5 0.5,-3.6 0.5,2.2 0.5,0.4 0.5,-1.2 0.5,2.2 0.5,0.1 0.5,-6.6 0.5,1.9 0.5,4.9 0.5,2.9 0.4,-4.4 0.5,2.6 0.5,-1.6 0.5,1 0.5,-0.5 0.5,5.1 0.5,-4.3 0.5,0.3 0.5,2.3 0.5,-0.7 0.5,1 0.5,-1.3 0.5,-0.3 0.5,2.6 0.5,-1 0.5,4.7 0.5,-2.5 0.5,-0.3 0.4,1.4 0.5,0 0.5,-0.6 0.5,-1.5 0.5,2.5 0.5,-0.3 0.5,1.2 0.5,1.5 0.5,1.1 0.5,-2.1 0.5,-1.4 0.5,1.8 0.5,-0.7 0.5,1 0.5,-2.3 0.5,0.4 0.5,-2.7 0.5,2.7 0.5,-1.1 0.4,-1.9 0.5,2.9 0.5,1 0.5,-3.7 0.5,-3.8 0.5,5.7 0.5,-3.9 0.5,-2.4 0.5,2.5 0.5,-3.2 0.5,3 0.5,1.2 0.5,-0.8 0.5,0.1 0.5,-1.3 0.5,0.4 0.5,2.2 0.5,-4.7 0.4,6.4 0.5,-2 0.5,-0.7 0.5,1.1 0.5,-4.5 0.5,-2.3 0.5,2.4 0.5,2.1 0.5,-0.3 0.5,2.8 h 0.01" />
    </g>
  </g>
  <g
     inkscape:groupmode="layer"
     id="layer26"
     inkscape:label="2x"
     style="display:inline">
    <g
       transform="translate(139.85744,7.2269261)"
       id="gnuplot_plot_1"
       style="stroke-width:3;display:inline">
      <title
         id="title106">gnuplot_plot_1</title>
      <g
         style="color:#ff0000;fill:none;stroke:currentColor;stroke-width:3;stroke-linecap:butt;stroke-linejoin:miter"
         id="g108">
        <path
           d="m 200.3,422.4 0.2,-14.5 0.5,-4.6 0.5,-24.3 0.5,-4.3 0.5,5.8 0.5,-20.5 0.5,9.8 0.5,-28.5 0.5,7.4 0.4,-3.2 0.5,-16.5 0.5,-2.3 0.5,-1.8 0.5,-17.7 0.5,0.5 0.5,3.3 0.5,-9.8 0.5,-3.1 0.5,-3 0.5,0.9 0.5,0 0.5,-4.3 0.5,-1.2 0.5,-0.5 0.5,-1.2 0.5,-7.3 0.5,-1 0.4,-1.4 0.5,-0.7 0.5,-1.3 0.5,-1.6 0.5,-1.2 0.5,-1.5 0.5,-3.3 0.5,4.7 0.5,-1.3 0.5,-0.9 0.5,-6.5 0.5,-1 0.5,-1.1 0.5,-0.8 0.5,-0.9 0.5,-1.4 0.5,-1.7 0.5,-0.6 0.5,-1.3 0.4,-1.3 0.5,-0.8 0.5,-1.5 0.5,-1.7 0.5,-0.9 0.5,-1 0.5,-0.3 0.5,-1 0.5,-1.9 0.5,-1 0.5,-0.9 0.5,-1.2 0.5,-1.5 0.5,-1.2 0.5,-1.4 0.5,-1.1 0.5,-1.5 0.5,-1.1 0.4,-1.7 0.5,-0.9 0.5,-1.2 0.5,-1.4 0.5,-1.8 0.5,-1.8 0.5,-1.1 0.5,-2 0.5,-1.2 0.5,-1.5 0.5,-1.4 0.5,-1.1 0.5,-1.1 0.5,-1 0.5,-1.4 0.5,-1.4 0.5,-1.4 0.5,-1.4 0.5,-1.5 0.4,-1.1 0.5,-1.4 0.5,-1 0.5,-0.9 0.5,-1.4 0.5,-1.5 0.5,1.7 0.5,-0.7 0.5,-1.3 0.5,-1.4 0.5,-0.7 0.5,-0.9 0.5,-0.8 0.5,-1.2 0.5,-1 0.5,-0.9 0.5,-1.1 0.5,-0.6 0.4,-0.6 0.5,-1.2 0.5,-0.9 0.5,-0.4 0.5,-1 0.5,-0.9 0.5,-1.1 0.5,-2.7 0.5,0.3 0.5,-1.1 0.5,-0.4 0.5,0.1 0.5,-0.4 0.5,-1.1 0.5,-1.2 0.5,-0.5 0.5,-1.1 0.5,-0.9 0.5,-0.7 0.4,-0.4 0.5,-0.3 0.5,-0.9 0.5,-0.7 0.5,-0.8 0.5,-0.7 0.5,-0.7 0.5,-0.6 0.5,-0.8 0.5,-0.7 0.5,-0.8 0.5,-0.9 0.5,-0.7 0.5,-0.8 0.5,-0.7 0.5,-1 0.5,-1.4 0.5,-0.6 0.4,-0.7 0.5,-11.1 0.5,-1.3 0.5,-0.7 0.5,-0.6 0.5,-1.2 0.5,-1.2 0.5,-1.1 0.5,0.1 0.5,-0.9 0.5,-0.9 0.5,0.5 0.5,-0.4 0.5,-1 0.5,-0.7 0.5,-1 0.5,-0.9 0.5,-0.9 0.5,-1 0.4,-1.4 0.5,-1 0.5,-0.7 0.5,-0.8 0.5,-0.5 0.5,-1 0.5,-1 0.5,-0.9 0.5,-0.6 0.5,0 0.5,-0.3 0.5,-0.5 0.5,0.1 0.5,-0.3 0.5,0 0.5,-0.2 0.5,-0.1 0.5,-0.4 0.4,-0.2 0.5,0.1 0.5,-0.4 0.5,-1.6 0.5,-0.5 0.5,-0.6 0.5,-0.4 0.5,0.4 0.5,0.3 0.5,-0.3 0.5,-0.4 0.5,-0.4 0.5,0.1 0.5,-0.3 0.5,-0.1 0.5,-6.2 0.5,-1.2 0.5,-0.6 0.5,-0.5 0.4,0.3 0.5,0.6 0.5,1.6 0.5,0.2 0.5,-0.1 0.5,-0.2 0.5,-0.2 0.5,-0.1 0.5,-0.3 0.5,0.1 0.5,-0.5 0.5,-0.3 0.5,-0.4 0.5,-0.7 0.5,-0.4 0.5,-0.5 0.5,-0.3 0.5,-0.3 0.4,-0.5 0.5,-0.8 0.5,-0.6 0.5,-0.7 0.5,-0.3 0.5,3.1 0.5,1.7 0.5,-2.5 0.5,-0.5 0.5,-0.2 0.5,1.1 0.5,-0.8 0.5,0.6 0.5,-1.1 0.5,-0.6 0.5,-0.7 0.5,-0.9 0.5,-1 0.5,-0.2 0.4,-0.3 0.5,-0.5 0.5,1.4 0.5,-0.4 0.5,-0.1 0.5,0 0.5,-0.1 0.5,-0.3 0.5,0.1 0.5,-0.3 0.5,-0.4 0.5,0.7 0.5,-0.6 0.5,-0.3 0.5,0 0.5,-0.5 0.5,-0.2 0.5,-0.2 0.4,-0.2 0.5,-0.3 0.5,-0.2 0.5,-0.2 0.5,-0.2 0.5,-0.1 0.5,0 0.5,0 0.5,0.2 0.5,0.8 0.5,0.6 0.5,0.4 0.5,0.7 0.5,0.3 0.5,0.4 0.5,0 0.5,0.2 0.5,0.4 0.5,0.2 0.4,0.3 0.5,0.3 0.5,0.4 0.5,0.5 0.5,0.2 0.5,-0.2 0.5,0.5 0.5,0.3 0.5,0.6 0.5,-2.2 0.5,0.6 0.5,0.8 0.5,0.6 0.5,0.5 0.5,0.9 0.5,0.5 0.5,0.7 0.5,0.9 0.4,0.6 0.5,1 0.5,0.8 0.5,0.9 0.5,0.9 0.5,0.9 0.5,0.1 0.5,0.9 0.5,0.8 0.5,0.4 0.5,-0.2 0.5,0 0.5,1.2 0.5,0.3 0.5,0.5 0.5,0.2 0.5,0.6 0.5,0.7 0.5,0.4 0.4,0.5 0.5,1.3 0.5,0.3 0.5,0.5 0.5,0.6 0.5,1 0.5,0.3 0.5,0.4 0.5,0.7 0.5,0.6 0.5,0.9 0.5,0.1 0.5,0.4 0.5,0.6 0.5,0.4 0.5,0.1 0.5,0.9 0.5,0.6 0.4,0.5 0.5,0 0.5,0.5 0.5,0.3 0.5,0.6 0.5,0.4 0.5,0.5 0.5,0.7 0.5,0.7 0.5,0.7 0.5,0.8 0.5,0.9 0.5,1.2 0.5,0.6 0.5,0.4 0.5,0.2 0.5,0.7 0.5,0.5 0.5,0.6 0.4,0.8 0.5,0.3 0.5,0.6 0.5,0.8 0.5,0.7 0.5,0.6 0.5,0.3 0.5,0.5 0.5,0.6 0.5,0.7 0.5,0.3 0.5,0.7 0.5,0.6 0.5,0.8 0.5,1.1 0.5,0.8 0.5,0.9 0.5,0.9 0.4,0.8 0.5,0.9 0.5,1 0.5,1 0.5,0.8 0.5,1.2 0.5,1.2 0.5,1 0.5,1.1 0.5,0.9 0.5,0.9 0.5,1.1 0.5,0.4 0.5,1.2 0.5,0.6 0.5,0.8 0.5,1 0.5,1.2 0.5,1.3 0.4,1 0.5,1.5 0.5,1.1 0.5,1.4 0.5,1.3 0.5,1.2 0.5,1.2 0.5,1.3 0.5,1.3 0.5,1 0.5,1.2 0.5,1.3 0.5,1.2 0.5,1.2 0.5,1.3 0.5,1.2 0.5,1.4 0.5,1.2 0.4,1.4 0.5,1.1 0.5,1.5 0.5,1.1 0.5,1.3 0.5,1.3 0.5,1.1 0.5,1.3 0.5,1.3 0.5,1.2 0.5,1.2 0.5,1.3 0.5,1.3 0.5,1.1 0.5,1.3 0.5,1.3 0.5,1.2 0.5,1.2 0.5,1.3 0.4,1.3 0.5,1.2 0.5,1.3 0.5,1.2 0.5,1.3 0.5,1.2 0.5,1.3 0.5,1.3 0.5,1.2 0.5,1.3 0.5,1.4 0.5,1.2 0.5,1.2 0.5,1.3 0.5,1.4 0.5,1.2 0.5,1.2 0.5,1.3 0.4,1.2 0.5,1.4 0.5,1.2 0.5,1.2 0.5,1.3 0.5,1.3 0.5,1.2 0.5,1.3 0.5,1.2 0.5,1.3 0.5,1.3 0.5,1.3 0.5,1.2 0.5,1.3 0.5,1.2 0.5,1.3 0.5,1.3 0.5,1.2 0.5,1.3 0.4,1.3 0.5,1.1 0.5,1.4 0.5,1.2 0.5,1.3 0.5,1.2 0.5,1.3 0.5,1.2 0.5,1.3 0.5,1.3 0.5,1.3 0.5,1.2 0.5,1.2 0.5,1.4 0.5,1.2 0.5,1.3 0.5,1.3 0.5,1.3 0.4,1.2 0.5,1.3 0.5,1.3 0.5,1.2 0.5,1.2 0.5,1.3 0.5,1.3 0.5,1.2 0.5,1.3 0.5,1.3 0.5,1.4 0.5,1.2 0.5,1.3 0.5,1.2 0.5,1.3 0.5,1.3 0.5,1.3 0.5,1.2 0.5,1.3 0.4,1.3 0.5,1.3 0.5,1.2 0.5,1.3 0.5,1.3 0.5,1.2 0.5,1.3 0.5,1.3 0.5,1.3 0.5,1.2 0.5,1.2 0.5,1.4 0.5,1.3 0.5,1.2 0.5,1.3 0.5,1.3 0.5,1.3 0.5,1.3 0.4,1.4 0.5,1.2 0.5,1.3 0.5,1.3 0.5,1.3 0.5,1.2 0.5,1.3 0.5,1.4 0.5,1.2 0.5,1.2 0.5,1.4 0.5,1.3 0.5,1.3 0.5,1.2 0.5,1.3 0.5,1.3 0.5,1.3 0.5,1.3 0.5,1.2 0.4,1.3 0.5,1.3 0.5,1.3 0.5,1.3 0.5,1.3 0.5,1.3 0.5,1.3 0.5,1.2 0.5,1.3 0.5,1.4 0.5,1.2 0.5,1.3 0.5,1.3 0.5,1.3 0.5,1.2 0.5,1.4 0.5,1.2 0.5,1.3 0.4,1.3 0.5,1.3 0.5,1.3 0.5,1.3 0.5,1.3 0.5,1.2 0.5,1.4 0.5,1.3 0.5,1.2 0.5,1.4 0.5,1.2 0.5,1.3 0.5,1.4 0.5,1.2 0.5,1.3 0.5,1.3 0.5,1.3 0.5,1.3 0.5,1.3 0.4,1.3 0.5,1.3 0.5,1.3 0.5,1.2 0.5,1.4 0.5,1.2 0.1,0.3 h 0.01"
           id="path110"
           style="stroke:#ff0000;stroke-width:3"
           inkscape:connector-curvature="0" />
      </g>
    </g>
    <rect
       transform="translate(2.2543795e-5,0)"
       style="fill:#ff0000;fill-opacity:0.82352941;stroke:none;display:inline"
       id="rect4357"
       width="49.766159"
       height="21.545242"
       x="434.40054"
       y="0.38391209" />
    <text
       xml:space="preserve"
       style="font-size:19.2085228px;font-style:normal;font-variant:normal;font-weight:normal;font-stretch:normal;text-align:start;line-height:100%;letter-spacing:0px;word-spacing:0px;writing-mode:lr-tb;text-anchor:start;fill:#ffffff;fill-opacity:1;stroke:none;display:inline;font-family:Nimbus Sans L;-inkscape-font-specification:'Nimbus Sans L, Normal'"
       x="556.435"
       y="14.18"
       id="text4363"
       sodipodi:linespacing="100%"
       transform="matrix(0.78090325,0,0,1.2805682,2.2543795e-5,0)"><tspan
         sodipodi:role="line"
         id="tspan4365"
         x="556.435"
         y="14.18"
         style="font-size:20px;letter-spacing:-1.60071027px">2x range</tspan></text>
  </g>
  <g
     inkscape:groupmode="layer"
     id="layer27"
     inkscape:label="10x"
     style="display:inline">
    <g
       transform="translate(139.85744,7.2269259)"
       id="gnuplot_plot_2"
       style="stroke-width:3;display:inline">
      <title
         id="title113">gnuplot_plot_2</title>
      <g
         style="color:#008000;fill:none;stroke:currentColor;stroke-width:3;stroke-linecap:butt;stroke-linejoin:miter"
         id="g115">
        <path
           d="m 177.1,422.4 0.1,-2.6 0.1,2.6 m 0.8,0 0.1,-5.3 0.3,5.3 m 0.5,0 0.2,-3 0.2,3 m 0.6,0 0.2,-7.5 0.5,-21.6 0.5,-7.7 0.5,2.7 0.5,-2.7 0.5,-36.9 0.5,4.7 0.5,-35.4 0.5,3.5 0.5,-8.5 0.5,-5.4 0.5,5.3 0.5,-4.9 0.4,-0.7 0.5,-1.2 0.5,-19.3 0.5,15.2 0.5,-17.2 0.5,-1.2 0.5,2 0.5,-3.5 0.5,-5.5 0.5,3.3 0.5,-8.2 0.5,-1 0.5,-1.7 0.5,-0.9 0.5,-1.2 0.5,-1.4 0.5,-1 0.5,-1 0.4,-1.3 0.5,-1.3 0.5,-1.3 0.5,-1.1 0.5,-1.3 0.5,-1.3 0.5,-1.9 0.5,-1.6 0.5,-1.4 0.5,-1.6 0.5,-1.9 0.5,-1.6 0.5,-1.5 0.5,-1.6 0.5,-1.7 0.5,-1.5 0.5,-1.3 0.5,-1.7 0.5,-1.7 0.4,-1.6 0.5,-1.4 0.5,-1.5 0.5,-1.4 0.5,-0.4 0.5,-1.6 0.5,-1.5 0.5,-1.5 0.5,-1.5 0.5,-1.3 0.5,-1.7 0.5,-1.6 0.5,-1.5 0.5,-1.3 0.5,-1.6 0.5,-1.5 0.5,-1.5 0.5,-0.6 0.4,-1.3 0.5,-1.5 0.5,-1.4 0.5,-1.3 0.5,-1.4 0.5,-1.5 0.5,-1.2 0.5,-1.3 0.5,-1.4 0.5,-1.4 0.5,-1.3 0.5,-1.4 0.5,-1.4 0.5,-1.3 0.5,-1.4 0.5,-0.2 0.5,-1.3 0.5,-1.6 0.5,-1.3 0.4,-1.2 0.5,-1.3 0.5,-0.9 0.5,-1 0.5,-0.8 0.5,-1.1 0.5,-0.9 0.5,-1 0.5,-0.8 0.5,-1.2 0.5,-0.9 0.5,-1 0.5,-0.9 0.5,-0.9 0.5,-1 0.5,-1 0.5,-0.7 0.5,-1 0.4,-1.2 0.5,-1.1 0.5,-1.1 0.5,-1 0.5,-0.8 0.5,-1.1 0.5,-1.3 0.5,-1.2 0.5,-1.2 0.5,-0.9 0.5,-0.1 0.5,-1.1 0.5,-0.8 0.5,-0.7 0.5,-0.6 0.5,-0.7 0.5,-0.7 0.5,-0.5 0.5,-2.1 0.4,-1.1 0.5,-0.9 0.5,-0.8 0.5,-0.5 0.5,-0.5 0.5,-0.7 0.5,-0.7 0.5,-0.5 0.5,1.5 0.5,-2.4 0.5,-1 0.5,0.3 0.5,-0.8 0.5,-1 0.5,-1.6 0.5,-1.1 0.5,-0.5 0.5,0.3 0.4,-0.8 0.5,-0.6 0.5,-0.8 0.5,-0.8 0.5,-0.6 0.5,-0.8 0.5,-0.6 0.5,-0.4 0.5,-0.8 0.5,-0.8 0.5,-0.5 0.5,-0.1 0.5,-1 0.5,0.9 0.5,-0.1 0.5,-1.4 0.5,-0.7 0.5,-0.3 0.5,-0.4 0.4,0.1 0.5,-0.3 0.5,-0.2 0.5,-1.2 0.5,-0.2 0.5,-0.1 0.5,-0.1 0.5,-0.2 0.5,-0.2 0.5,0 0.5,-0.1 0.5,-0.2 0.5,-0.2 0.5,-0.4 0.5,-0.4 0.5,-0.7 0.5,-0.5 0.5,-0.1 0.4,-2.5 0.5,-1.5 0.5,-0.2 0.5,0.2 0.5,0.3 0.5,0.5 0.5,0.2 0.5,0.2 0.5,0.3 0.5,0.4 0.5,0.4 0.5,0.4 0.5,0.3 0.5,0.4 0.5,1 0.5,21.7 0.5,-0.6 0.5,-0.2 0.5,-1.1 0.4,1.7 0.5,-0.6 0.5,-0.4 0.5,-0.5 0.5,-0.1 0.5,-0.7 0.5,-0.7 0.5,-0.8 0.5,0.5 0.5,-0.5 0.5,-0.4 0.5,-0.8 0.5,-0.9 0.5,-0.8 0.5,-1.1 0.5,-0.1 0.5,-0.3 0.5,-0.1 0.4,0.4 0.5,-0.4 0.5,-0.5 0.5,-0.3 0.5,-0.4 0.5,-0.1 0.5,14 0.5,-0.7 0.5,-0.5 0.5,-0.9 0.5,-0.9 0.5,-0.8 0.5,-1 0.5,-0.4 0.5,-0.8 0.5,-1.3 0.5,-0.4 0.5,-1.5 0.5,-0.1 0.4,-1 0.5,-0.6 0.5,-0.9 0.5,-0.6 0.5,-0.3 0.5,-0.4 0.5,-0.5 0.5,-0.2 0.5,-0.8 0.5,-0.8 0.5,-0.5 0.5,-0.3 0.5,-0.6 0.5,-0.2 0.5,0.1 0.5,-0.4 0.5,-0.5 0.5,-0.8 0.4,1 0.5,0 0.5,-0.3 0.5,0.3 0.5,0.3 0.5,0 0.5,0.3 0.5,-0.2 0.5,-0.3 0.5,-0.1 0.5,0 0.5,0.1 0.5,-0.6 0.5,-0.3 0.5,0.2 0.5,-0.8 0.5,-0.3 0.5,0.1 0.5,-0.7 0.4,0.2 0.5,-0.5 0.5,0.4 0.5,-0.6 0.5,0.2 0.5,-0.4 0.5,-0.2 0.5,-1 0.5,0.1 0.5,-0.6 0.5,-0.3 0.5,-0.8 0.5,0.2 0.5,-0.5 0.5,-0.3 0.5,-0.6 0.5,0 0.5,0 0.4,-1.7 0.5,0.7 0.5,0.1 0.5,0.1 0.5,0.8 0.5,0.3 0.5,-0.2 0.5,0.2 0.5,0.2 0.5,0.5 0.5,0.3 0.5,0.2 0.5,-0.1 0.5,0.1 0.5,0.4 0.5,0.1 0.5,0 0.5,0.8 0.5,-0.4 0.4,0.9 0.5,8.1 0.5,0.1 0.5,-0.3 0.5,-0.1 0.5,-0.8 0.5,-1.4 0.5,-1.1 0.5,-1.7 0.5,-1.1 0.5,-0.7 0.5,0.1 0.5,-0.8 0.5,-0.8 0.5,-0.2 0.5,0.4 0.5,-0.8 0.5,0.3 0.4,-0.7 0.5,-0.1 0.5,0 0.5,-0.9 0.5,-0.1 0.5,-0.3 0.5,-0.6 0.5,0 0.5,-0.5 0.5,-1 0.5,-0.5 0.5,-0.3 0.5,0 0.5,1.8 0.5,0.1 0.5,0.3 0.5,0 0.5,0.1 0.5,-0.4 0.4,0.5 0.5,0.1 0.5,0.4 0.5,-0.4 0.5,1.2 0.5,0 0.5,-0.8 0.5,0.9 0.5,0.1 0.5,0.8 0.5,-0.3 0.5,0.1 0.5,0.1 0.5,-0.1 0.5,0.2 0.5,-0.1 0.5,0.1 0.5,-0.6 0.4,-0.2 0.5,0.6 0.5,0 0.5,0.2 0.5,-0.7 0.5,-0.4 0.5,-0.6 0.5,0.3 0.5,-0.5 0.5,-0.5 0.5,-0.1 0.5,0.3 0.5,-0.6 0.5,-0.2 0.5,0 0.5,0.2 0.5,0.1 0.5,-0.9 0.5,0.1 0.4,0.9 0.5,0 0.5,0.4 0.5,-0.2 0.5,1.1 0.5,1 0.5,0.5 0.5,0.2 0.5,0.7 0.5,0.3 0.5,0 0.5,0.6 0.5,-0.2 0.5,0.6 0.5,0 0.5,0.5 0.5,0 0.5,-0.2 0.4,0.5 0.5,0.6 0.5,-0.4 0.5,0 0.5,0.4 0.5,0.3 0.5,-0.2 0.5,-0.4 0.5,-0.4 0.5,-1.4 0.5,-0.6 0.5,0.1 0.5,0.1 0.5,0 0.5,0.5 0.5,0.8 0.5,1 0.5,0.4 0.5,-1.1 0.4,0.4 0.5,0.1 0.5,1.1 0.5,0.3 0.5,0.4 0.5,1 0.5,0.6 0.5,0.6 0.5,0.3 0.5,0.6 0.5,0.3 0.5,0.3 0.5,0.4 0.5,0.8 0.5,0.9 0.5,0.4 0.5,0.9 0.5,0.4 0.4,0.8 0.5,0.7 0.5,0.9 0.5,0.8 0.5,1 0.5,0.3 0.5,0.8 0.5,0.5 0.5,1 0.5,1 0.5,0.8 0.5,0.8 0.5,1 0.5,1 0.5,0.7 0.5,0.9 0.5,0.6 0.5,0.8 0.5,0.9 0.4,0.3 0.5,0.8 0.5,0.4 0.5,1 0.5,0.3 0.5,0.7 0.5,0.5 0.5,0.9 0.5,0.7 0.5,0.6 0.5,0.8 0.5,0.8 0.5,0.8 0.5,1.1 0.5,0 0.5,0.4 0.5,0.8 0.5,0.7 0.4,0.7 0.5,0.9 0.5,0.8 0.5,1 0.5,0.9 0.5,0.8 0.5,0.8 0.5,0.8 0.5,0.6 0.5,0.6 0.5,0.7 0.5,0.7 0.5,0.6 0.5,0.4 0.5,1.2 0.5,1 0.5,1.1 0.5,1.1 0.5,1 0.4,1 0.5,1.1 0.5,1 0.5,1.1 0.5,0.9 0.5,1 0.5,0.9 0.5,0.9 0.5,1.1 0.5,1.1 0.5,1.1 0.5,0.9 0.5,1 0.5,0.8 0.5,0.8 0.5,0.3 0.5,0.5 0.5,0 0.4,0.2 0.5,0.9 0.5,1 0.5,1.1 0.5,1.3 0.5,1.3 0.5,1.3 0.5,1.3 0.5,1.2 0.5,1.3 0.5,1.3 0.5,1.3 0.5,1.3 0.5,1.3 0.5,1.3 0.5,1.3 0.5,1.3 0.5,1.3 0.5,1.3 0.4,1.3 0.5,1.3 0.5,1.3 0.5,1.3 0.5,1.3 0.5,1.3 0.5,1.4 0.5,1.2 0.5,1.3 0.5,1.4 0.5,1.3 0.5,1.3 0.5,1.3 0.5,1.3 0.5,1.3 0.5,1.3 0.5,1.3 0.5,1.3 0.4,1.3 0.5,1.3 0.5,1.3 0.5,1.3 0.5,1.3 0.5,1.3 0.5,1.3 0.5,1.3 0.5,1.3 0.5,1.3 0.5,1.3 0.5,1.2 0.5,1.3 0.5,1.3 0.5,1.3 0.5,1.3 0.5,1.2 0.5,1.3 0.5,1.4 0.4,1.2 0.5,1.3 0.5,1.3 0.5,1.3 0.5,1.3 0.5,1.3 0.5,1.3 0.5,1.3 0.5,1.3 0.5,1.3 0.5,1.3 0.5,1.3 0.5,1.3 0.5,1.3 0.5,1.3 0.5,1.3 0.5,1.3 0.5,1.3 0.4,1.3 0.5,1.3 0.5,1.3 0.5,1.3 0.5,1.3 0.5,1.3 0.5,1.3 0.5,1.3 0.5,1.3 0.5,1.3 0.5,1.3 0.5,1.3 0.5,1.3 0.5,1.3 0.5,1.3 0.5,1.3 0.5,1.3 0.5,1.3 0.5,1.3 0.4,1.3 0.5,1.3 0.5,1.3 0.5,1.3 0.5,1.3 0.5,1.3 0.5,1.3 0.5,1.3 0.5,1.3 0.5,1.3 0.5,1.3 0.5,1.2 0.5,1.4 0.5,1.2 0.5,1.3 0.5,1.3 0.5,1.3 0.5,1.3 0.4,1.3 0.5,1.3 0.5,1.3 0.5,1.3 0.5,1.2 0.5,1.3 0.5,1.3 0.5,1.3 0.5,1.3 0.5,1.3 0.5,1.3 0.5,1.3 0.5,1.3 0.5,1.3 0.5,1.3 0.5,1.3 0.5,1.3 0.5,1.3 0.5,1.3 0.4,1.3 0.5,1.3 0.5,1.3 0.5,1.2 0.5,1.3 0.5,1.3 0.5,1.4 0.5,1.3 0.5,1.2 0.5,1.3 0.5,1.3 0.5,1.4 0.5,1.3 0.5,1.3 0.5,1.3 0.5,1.3 0.5,1.4 0.5,1.3 0.4,1.3 0.5,1.3 0.5,1.3 0.5,1.3 0.5,1.3 0.5,1.3 0.5,1.3 0.5,1.3 0.5,1.2 0.5,1.3 0.5,1.3 0.5,1.2 0.5,1.3 0.5,1.3 0.5,1.3 0.5,1.3 0.5,1.3 0.5,1.3 0.5,1.2 0.4,1.3 0.5,1.3 0.5,1.3 0.5,1.3 0.5,1.3 0.5,1.3 0.5,1.3 0.5,1.3 0.5,1.2 h 0.01"
           id="path117"
           style="stroke:#008000;stroke-width:3"
           inkscape:connector-curvature="0" />
      </g>
    </g>
    <rect
       transform="translate(3.1561313e-5,0)"
       style="fill:#006400;fill-opacity:0.82352941;stroke:none;display:inline"
       id="rect4357-9"
       width="165.27542"
       height="20.315025"
       x="376.63751"
       y="22.545929" />
    <text
       xml:space="preserve"
       style="font-size:19.27912521px;font-style:normal;font-variant:normal;font-weight:normal;font-stretch:normal;text-align:start;line-height:100%;letter-spacing:0px;word-spacing:0px;writing-mode:lr-tb;text-anchor:start;fill:#ffffff;fill-opacity:1;stroke:none;display:inline;font-family:Nimbus Sans L;-inkscape-font-specification:'Nimbus Sans L, Normal'"
       x="544.40472"
       y="30.981884"
       id="text4363-8"
       sodipodi:linespacing="100%"
       transform="matrix(0.78126109,0,0,1.2799816,3.1561313e-5,0)"><tspan
         sodipodi:role="line"
         id="tspan4365-7"
         x="544.40472"
         y="30.981884"
         style="font-size:20px">10x range</tspan></text>
  </g>
  <g
     inkscape:groupmode="layer"
     id="layer28"
     inkscape:label="100x"
     style="display:inline">
    <g
       transform="translate(139.85744,7.2269257)"
       id="gnuplot_plot_3"
       style="stroke-width:3;display:inline">
      <title
         id="title120">gnuplot_plot_3</title>
      <g
         style="color:#0000ff;fill:none;stroke:currentColor;stroke-width:3;stroke-linecap:butt;stroke-linejoin:miter"
         id="g122">
        <path
           d="m 71.9,415.8 0.5,3.4 0.3,3.2 m 0.2,0 0.5,-23 0.5,23 0.5,-23.6 0.5,-2.6 0.5,-22 0.5,14.7 0.5,-17.4 0.4,6.2 0.5,-9.5 0.5,-2.7 0.5,-7.9 0.5,-7.9 0.5,-19.7 0.5,18 0.5,-26.1 0.5,24.9 0.5,-8.7 0.5,-7.9 0.5,12.5 0.5,-23.4 0.5,2.2 0.5,-12.4 0.5,5.2 0.5,-7.6 0.5,4.3 0.4,-2.1 0.5,-5.7 0.5,-1.6 0.5,4.5 0.5,-15.7 0.5,5.7 0.5,-5.2 0.5,1.5 0.5,-4.2 0.5,0.7 0.5,-1.2 0.5,2.5 0.5,-6.2 0.5,-0.5 0.5,-1.2 0.5,0.3 0.5,-0.3 0.5,0.3 0.5,-1.1 0.4,-0.7 0.5,-1.5 0.5,2.4 0.5,-4.6 0.5,1.1 0.5,0.5 0.5,-0.8 0.5,-0.1 0.5,-3 0.5,-1.2 0.5,1.6 0.5,-3 0.5,-3 0.5,-1 0.5,-1.5 0.5,-0.3 0.5,-1.5 0.5,-0.5 0.4,-1.3 0.5,-1.6 0.5,-1.1 0.5,-1.4 0.5,-0.9 0.5,0 0.5,-1.5 0.5,0.4 0.5,-0.7 0.5,-1.4 0.5,-0.8 0.5,-0.6 0.5,-0.9 0.5,-2.9 0.5,-1.6 0.5,-0.4 0.5,-1 0.5,-0.9 0.5,-1.3 0.4,-1.1 0.5,-0.9 0.5,-0.3 0.5,-1 0.5,1.9 0.5,-1.3 0.5,-1.5 0.5,-0.5 0.5,-1.3 0.5,-0.8 0.5,-1.6 0.5,-0.5 0.5,-0.7 0.5,-0.2 0.5,-1.9 0.5,-1.2 0.5,-0.3 0.5,-1.1 0.4,-1.5 0.5,-0.6 0.5,-1.1 0.5,-0.7 0.5,-0.9 0.5,-1.2 0.5,-1.4 0.5,-0.7 0.5,-1.4 0.5,-1.5 0.5,-1.3 0.5,-0.2 0.5,-0.7 0.5,-0.2 0.5,-2.2 0.5,-0.9 0.5,-0.4 0.5,-0.6 0.5,-0.9 0.4,-1.8 0.5,0.3 0.5,-1.7 0.5,-1.5 0.5,-0.4 0.5,-1.3 0.5,-0.7 0.5,-0.5 0.5,-0.8 0.5,-0.1 0.5,-1.5 0.5,-0.9 0.5,-1.8 0.5,-0.3 0.5,-1 0.5,-1.1 0.5,-0.5 0.5,-0.7 0.4,-1.4 0.5,0.1 0.5,-1 0.5,-1 0.5,-0.5 0.5,-1.9 0.5,-1 0.5,-1 0.5,-1.4 0.5,0.1 0.5,-0.7 0.5,-0.9 0.5,-0.9 0.5,-1.1 0.5,-0.7 0.5,-1 0.5,-0.8 0.5,-1.2 0.5,-0.3 0.4,-1.3 0.5,-0.5 0.5,-1.2 0.5,-0.3 0.5,-1.2 0.5,-1.6 0.5,-1.1 0.5,-1.5 0.5,-1 0.5,-0.6 0.5,-1 0.5,-0.9 0.5,-0.4 0.5,-1.3 0.5,-2.4 0.5,-0.7 0.5,-0.8 0.5,-1.2 0.4,-0.9 0.5,-0.6 0.5,-0.8 0.5,-0.1 0.5,-0.9 0.5,-1 0.5,-1 0.5,-0.8 0.5,-1 0.5,-0.8 0.5,-1 0.5,0.2 0.5,-1.1 0.5,-0.1 0.5,-0.9 0.5,-0.9 0.5,-0.9 0.5,-0.5 0.5,-1.1 0.4,3.6 0.5,-0.7 0.5,-0.6 0.5,-0.1 0.5,-0.6 0.5,-0.4 0.5,-0.3 0.5,-0.2 0.5,-0.3 0.5,-0.7 0.5,-0.7 0.5,-0.3 0.5,-0.7 0.5,0.7 0.5,-0.2 0.5,-0.5 0.5,-0.4 0.5,0 0.4,-0.7 0.5,1.5 0.5,-0.4 0.5,-1 0.5,-0.2 0.5,-0.5 0.5,-0.1 0.5,-1.4 0.5,0.1 0.5,-1.2 0.5,-0.7 0.5,-0.2 0.5,0.3 0.5,-2.2 0.5,-0.4 0.5,0.1 0.5,0.4 0.5,-0.4 0.5,-0.7 0.4,0 0.5,-0.6 0.5,0.1 0.5,-0.4 0.5,-0.1 0.5,0.9 0.5,-0.2 0.5,-0.9 0.5,-0.2 0.5,0.6 0.5,0.2 0.5,0.4 0.5,-0.2 0.5,3.5 0.5,0 0.5,-0.3 0.5,0.4 0.5,-0.2 0.4,0.4 0.5,-0.9 0.5,-0.2 0.5,0 0.5,-0.2 0.5,-0.1 0.5,-0.2 0.5,-0.4 0.5,-0.5 0.5,-0.8 0.5,-0.3 0.5,0.1 0.5,-0.4 0.5,-0.3 0.5,-0.4 0.5,-0.3 0.5,0.4 0.5,-1.2 0.5,0.4 0.4,-0.1 0.5,-0.7 0.5,-0.1 0.5,-0.7 0.5,-0.4 0.5,-0.6 0.5,-0.4 0.5,-0.3 0.5,-0.2 0.5,0 0.5,-0.1 0.5,0.3 0.5,-0.4 0.5,-0.5 0.5,-0.4 0.5,0.7 0.5,-0.2 0.5,-0.2 0.4,-0.2 0.5,0 0.5,0 0.5,-0.6 0.5,0.4 0.5,0.4 0.5,-0.1 0.5,-0.4 0.5,0 0.5,-0.2 0.5,0.2 0.5,-0.3 0.5,0 0.5,-0.3 0.5,0.1 0.5,-0.2 0.5,0 0.5,0.1 0.5,-0.8 0.4,-0.2 0.5,-0.4 0.5,0.2 0.5,-0.5 0.5,0.2 0.5,-0.9 0.5,0.1 0.5,-0.1 0.5,2.4 0.5,0.8 0.5,0.5 0.5,0.7 0.5,-0.7 0.5,0.6 0.5,0.4 0.5,0.1 0.5,-0.2 0.5,0 0.4,-0.5 0.5,-0.2 0.5,0.8 0.5,0.6 0.5,0.2 0.5,0.5 0.5,0.3 0.5,0.3 0.5,0.4 0.5,0.3 0.5,0.1 0.5,0.6 0.5,0.6 0.5,0 0.5,1 0.5,0.3 0.5,0.1 0.5,0.3 0.5,0.1 0.4,-0.3 0.5,0.4 0.5,-0.6 0.5,-2.3 0.5,-4.1 0.5,0.2 0.5,0.7 0.5,0.9 0.5,0.6 0.5,0.7 0.5,0.3 0.5,0.6 0.5,0.6 0.5,0.4 0.5,0.4 0.5,1 0.5,0.5 0.5,0.8 0.4,0.4 0.5,0.8 0.5,0.4 0.5,0.6 0.5,0.9 0.5,0.3 0.5,0.8 0.5,0.6 0.5,0 0.5,1 0.5,1 0.5,0.3 0.5,0.4 0.5,0.6 0.5,0.5 0.5,-0.5 0.5,0.5 0.5,2.1 0.5,0.1 0.4,0.8 0.5,0.5 0.5,0.1 0.5,0.4 0.5,0.6 0.5,0.1 0.5,0.1 0.5,0 0.5,0.3 0.5,-1.6 0.5,-0.4 0.5,0.1 0.5,-2.5 0.5,0.1 0.5,1.7 0.5,-0.2 0.5,-1 0.5,-0.9 0.4,-0.2 0.5,-1.5 0.5,0.2 0.5,-1.4 0.5,-0.3 0.5,-1.5 0.5,-0.1 0.5,-1 0.5,-0.7 0.5,-1.7 0.5,1.1 0.5,-1.6 0.5,0.1 0.5,0.4 0.5,-1.9 0.5,1.5 0.5,-2.6 0.5,-0.1 0.5,1.1 0.4,-0.1 0.5,-0.4 0.5,1 0.5,-0.3 0.5,1.7 0.5,-0.1 0.5,8.1 0.5,1.3 0.5,1 0.5,0.7 0.5,0.2 0.5,-0.3 0.5,-0.5 0.5,3.2 0.5,-0.3 0.5,1 0.5,1.2 0.5,-0.3 0.4,0.1 0.5,0 0.5,0.9 0.5,0.2 0.5,0 0.5,-0.1 0.5,0 0.5,-0.2 0.5,-1 0.5,0.3 0.5,-0.8 0.5,-1.2 0.5,-0.4 0.5,-0.1 0.5,-1.3 0.5,-0.2 0.5,0.1 0.5,-1.1 0.5,-1.6 0.4,8.6 0.5,-0.5 0.5,-0.3 0.5,-0.9 0.5,-1 0.5,-0.8 0.5,-1.2 0.5,-0.2 0.5,-0.7 0.5,-1.4 0.5,-0.9 0.5,-0.8 0.5,-1 0.5,-1.7 0.5,2.2 0.5,-0.4 0.5,0.6 0.5,0.6 0.4,-0.3 0.5,-0.3 0.5,-1.5 0.5,0.6 0.5,-2.2 0.5,0.3 0.5,-0.1 0.5,0.5 0.5,0 0.5,-0.8 0.5,0.1 0.5,-2 0.5,-0.2 0.5,-0.1 0.5,0.1 0.5,-0.9 0.5,0.5 0.5,-0.6 0.5,-0.5 0.4,-1.2 0.5,0.1 0.5,-1.2 0.5,-0.1 0.5,0.2 0.5,-0.2 0.5,-0.3 0.5,0.5 0.5,0.3 0.5,-0.2 0.5,-0.8 0.5,0.8 0.5,-1.2 0.5,0.1 0.5,0 0.5,-0.5 0.5,0 0.5,25.6 0.4,-0.8 0.5,-0.2 0.5,-0.1 0.5,-1.1 0.5,0.8 0.5,-0.6 0.5,-0.7 0.5,-0.4 0.5,-0.5 0.5,0.7 0.5,-1 0.5,-0.3 0.5,0.4 0.5,0.4 0.5,-0.9 0.5,-0.4 0.5,0.2 0.5,-0.8 0.5,0.7 0.4,-0.7 0.5,-1.6 0.5,0.1 0.5,0.2 0.5,1.9 0.5,1.5 0.5,0.7 0.5,-1 0.5,-1.3 0.5,-0.4 0.5,-1 0.5,-0.8 0.5,0.6 0.5,-0.6 0.5,-0.3 0.5,0.1 0.5,-0.2 0.5,-0.4 0.4,0.2 0.5,-0.8 0.5,0 0.5,0.2 0.5,0.5 0.5,-0.6 0.5,-0.1 0.5,-0.1 0.5,0.4 0.5,-0.1 0.5,0.1 0.5,-0.2 0.5,-0.8 0.5,-0.1 0.5,-0.2 0.5,0.2 0.5,0.3 0.5,-0.3 0.5,0.5 0.4,0.1 0.5,0.1 0.5,0.4 0.5,0.2 0.5,-0.3 0.5,0.1 0.5,-0.2 0.5,0.3 0.5,-0.1 0.5,-0.2 0.5,0.7 0.5,0.1 0.5,0 0.5,-0.1 0.5,-0.3 0.5,-5.3 0.5,0.1 0.5,-0.3 0.4,0.3 0.5,-0.4 0.5,0.3 0.5,-1 0.5,-0.4 0.5,1.9 0.5,0 0.5,0.3 0.5,-1 0.5,-0.6 0.5,0.1 0.5,-0.8 0.5,0.1 0.5,0.1 0.5,-0.9 0.5,-0.2 0.5,0.1 0.5,-0.5 0.5,4 0.4,-0.1 0.5,-0.4 0.5,-0.1 0.5,0.4 0.5,-0.4 0.5,0.2 0.5,2.5 0.5,1 0.5,0.6 0.5,3.1 0.5,-0.7 0.5,1.2 0.5,-1.3 0.5,0 0.5,-0.2 0.5,0.3 0.5,0.9 0.5,0.7 0.4,-0.3 0.5,0.2 0.5,-0.7 0.5,-0.3 0.5,0.2 0.5,0 0.5,-0.3 0.5,0.2 0.5,-0.1 0.5,0 0.5,0.6 0.5,0 0.5,0.8 0.5,-0.2 0.5,0.3 0.5,-0.7 0.5,0.4 0.5,0.9 0.5,0.4 0.4,-1.2 0.5,0.3 0.5,-0.3 0.5,0.7 0.5,-0.1 0.5,-0.4 0.5,0.3 0.5,-1.3 0.5,-5.8 0.5,-0.9 0.5,-3.5 0.5,-3.2 0.5,-4 0.5,-0.3 0.5,0.9 0.5,0.7 0.5,0.4 0.5,0.9 0.4,0.8 0.5,0.5 0.5,0.6 0.5,-0.3 0.5,0.4 0.5,1.7 0.5,0.8 0.5,1 0.5,0.8 0.5,-1.3 0.5,0.3 0.5,0.2 0.5,0.6 0.5,0.6 0.5,0.8 0.5,-0.9 0.5,-1.2 0.5,-0.3 0.5,-0.7 0.4,-0.2 0.5,-1.1 0.5,0 0.5,-0.1 0.5,-1.6 0.5,-1 0.5,1.4 0.5,0.1 0.5,-0.9 0.5,0 0.5,-0.4 0.5,0.8 0.5,0 0.5,0.4 0.5,0.7 0.5,0.6 0.5,0 0.5,0.9 0.4,0.5 0.5,2.5 0.5,1.8 0.5,1.9 0.5,0.4 0.5,0.6 0.5,1.2 0.5,0 0.5,0.6 0.5,1.3 0.5,-0.6 0.5,1.2 0.5,1 0.5,0.1 0.5,0.2 0.5,-1.3 0.5,3.3 0.5,-1.6 0.5,1.1 0.4,-2.7 0.5,1.4 0.5,0.3 0.5,0.4 0.5,-0.7 0.5,-0.2 0.5,2.2 0.5,-0.9 0.5,-0.2 0.5,-0.4 0.5,-0.3 0.5,0 0.5,-0.1 0.5,-1.3 0.5,1.1 0.5,-1.5 0.5,-1.1 0.5,0.4 0.4,1.2 0.5,-0.5 0.5,0.9 0.5,-0.1 0.5,-0.6 0.5,0.2 0.5,-0.4 0.5,0.2 0.5,-0.8 0.5,0.6 0.5,1 0.5,-0.2 0.5,8.9 0.5,0.4 0.5,-0.8 0.5,0.7 0.5,0.1 0.5,0.3 0.5,-1.6 0.4,-1 0.5,-2.1 0.5,-0.5 0.5,-0.3 0.5,-0.5 0.5,-0.4 0.5,0.4 0.5,0.2 0.5,1.1 0.5,0.5 0.5,-0.1 0.5,0.1 0.5,0.3 0.5,0.3 0.5,0 0.5,1 0.5,-0.4 0.5,2.1 0.4,1.5 0.5,0.5 0.5,0.7 0.5,-0.1 0.5,-1.6 0.5,-1.3 0.5,0 0.5,0 0.5,-1.6 0.5,-0.5 0.5,0.7 0.5,-2.4 0.5,-2.3 0.5,-2.2 0.5,0.7 0.5,-0.4 0.5,0.7 0.5,0.6 0.5,0.7 0.4,0.1 0.5,1.2 0.5,0.4 0.5,1.1 0.5,1.5 0.5,-0.6 0.5,0.9 0.5,0.7 0.5,0.6 0.5,-0.2 0.5,1.2 0.5,-0.4 0.5,0.2 0.5,-1.2 0.5,1.6 0.5,0.2 0.5,0 0.5,1.6 0.4,0.7 0.5,-0.4 0.5,-1.1 0.5,0 0.5,-1.4 0.5,-0.8 0.5,0.9 0.5,-1.9 0.5,0.7 0.5,1.1 0.5,0.6 0.5,0.6 0.5,0.7 0.5,1 0.5,0.8 0.5,0.7 0.5,0.9 0.5,0.4 0.5,0.9 0.4,0.4 0.5,1.3 0.5,1.2 0.5,0.6 0.5,0.8 0.5,1.1 0.5,0.8 0.5,0.7 0.5,0.7 0.5,0.3 0.5,0.7 0.5,0.8 0.5,1 0.5,0.9 0.5,1.5 0.5,0.6 0.5,1.5 0.5,0.7 0.4,1.2 0.5,1.7 0.5,0.5 0.5,0.9 0.5,0.8 0.5,0.9 0.5,1.9 0.5,0 0.5,0.3 0.5,0.7 0.5,0.3 0.5,0.4 0.5,0.7 0.5,0.5 0.5,0.8 0.5,1 0.5,0.9 0.5,0.8 0.5,0.9 0.4,0.7 0.5,0.8 0.5,0.9 0.5,1.1 0.5,1.1 0.5,1.2 0.5,1.1 0.5,1.3 0.5,1.1 0.5,1.1 0.5,1 0.5,0.8 0.5,0.7 0.5,0.9 0.5,1 0.5,0.6 0.5,-0.2 0.5,-0.5 0.4,-0.9 0.5,-1.6 0.5,-0.2 0.5,1.3 0.5,1.3 0.5,1.3 0.5,1.3 0.5,1.3 0.5,1.3 0.5,1.3 0.5,1.3 0.5,1.3 0.5,1.3 0.5,1.3 0.5,1.3 0.5,1.3 0.5,1.3 0.5,1.4 0.5,1.3 0.4,1.3 0.5,1.3 0.5,1.3 0.5,1.3 0.5,1.3 0.5,1.3 0.5,1.3 0.5,1.3 0.5,1.3 0.5,1.3 0.5,1.3 0.5,1.3 0.5,1.3 0.5,1.3 0.5,1.3 0.5,1.3 0.5,1.3 0.5,1.3 0.4,1.3 0.5,1.3 0.5,1.4 0.5,1.3 0.5,1.3 0.5,1.3 0.5,1.3 0.5,1.3 0.5,1.3 0.5,1.3 0.5,1.3 0.5,1.3 0.5,1.3 0.5,1.3 0.5,1.3 0.5,1.3 0.5,1.3 0.5,1.3 0.5,1.3 0.4,1.3 0.5,1.3 0.5,1.3 0.5,1.3 0.5,1.3 0.5,1.4 0.5,1.3 0.5,1.3 0.5,1.3 0.5,1.3 0.5,1.3 0.5,1.3 0.5,1.3 0.5,1.3 0.5,1.3 0.5,1.3 0.5,1.3 0.5,1.3 0.4,1.3 0.5,1.3 0.5,1.3 0.5,1.3 0.5,1.3 0.5,1.3 0.5,1.3 0.5,1.3 0.5,1.4 0.5,1.3 0.5,1.3 0.5,1.3 0.5,1.3 0.5,1.3 0.5,1.3 0.5,1.3 0.5,1.3 0.5,1.3 0.5,1.3 0.4,1.3 0.5,1.3 0.5,1.3 0.5,1.3 0.5,1.3 0.5,1.3 0.5,1.3 0.5,1.3 0.5,1.3 0.5,1.3 0.5,1.3 0.5,1.4 0.5,1.3 0.5,1.3 0.5,1.3 0.5,1.3 0.5,1.3 0.5,1.3 0.4,1.3 0.5,1.3 0.5,1.3 0.5,1.3 0.5,1.3 0.5,1.3 0.5,1.3 0.5,1.3 0.5,1.3 0.5,1.3 h 0.01"
           id="path124"
           style="stroke:#0000ff;stroke-width:3"
           inkscape:connector-curvature="0" />
      </g>
    </g>
    <rect
       transform="translate(1.2173647e-4,0)"
       style="fill:#0000ff;fill-opacity:0.82352941;stroke:none;display:inline"
       id="rect4357-9-5"
       width="332.76978"
       height="19.614367"
       x="292.89032"
       y="41.716469" />
    <text
       xml:space="preserve"
       style="font-size:18.32759285px;font-style:normal;font-variant:normal;font-weight:normal;font-stretch:normal;text-align:start;line-height:100%;letter-spacing:0px;word-spacing:0px;writing-mode:lr-tb;text-anchor:start;fill:#ffffff;fill-opacity:1;stroke:none;display:inline;font-family:Nimbus Sans L;-inkscape-font-specification:'Nimbus Sans L, Normal'"
       x="507.56711"
       y="49.217693"
       id="text4363-8-8"
       sodipodi:linespacing="100%"
       transform="matrix(0.8218222,0,0,1.2168074,1.2173647e-4,0)"><tspan
         sodipodi:role="line"
         id="tspan4365-7-0"
         x="507.56711"
         y="49.217693"
         style="font-size:20px">100x range</tspan></text>
  </g>
  <g
     inkscape:groupmode="layer"
     id="layer29"
     inkscape:label="1000x"
     style="display:inline">
    <path
       transform="translate(139.85744,7.2269255)"
       d="m 71.9,193.5 0.5,-0.6 0.5,-1.1 0.5,-0.9 0.5,-0.6 0.5,-0.8 0.5,-1 0.5,-1.1 0.5,-1 0.5,-0.8 0.4,-1.1 0.5,-1 0.5,-1.4 0.5,-1 0.5,-1.3 0.5,-0.6 0.5,-1.1 0.5,-1.2 0.5,-1.4 0.5,-0.7 0.5,-2 0.5,-1.3 0.5,-1.1 0.5,-1.1 0.5,-1.2 0.5,-0.5 0.5,-1.3 0.5,0.2 0.4,-1.2 0.5,-0.9 0.5,-1.4 0.5,-1.2 0.5,-0.8 0.5,-0.7 0.5,-0.2 0.5,-1.6 0.5,-0.9 0.5,-0.9 0.5,-0.8 0.5,-1 0.5,-1 0.5,-1 0.5,-0.1 0.5,-0.1 0.5,-0.7 0.5,-0.1 0.5,-0.2 0.4,0 0.5,-0.2 0.5,-0.3 0.5,0.2 0.5,0 0.5,-0.2 0.5,-0.1 0.5,0 0.5,-0.5 0.5,0 0.5,-0.3 0.5,0.5 0.5,0 0.5,-0.1 0.5,-0.3 0.5,-0.1 0.5,0.3 0.5,0 0.4,0.6 0.5,2.4 0.5,0.1 0.5,0.2 0.5,0.4 0.5,0.4 0.5,-0.1 0.5,5.6 0.5,-0.1 0.5,-0.1 0.5,-0.1 0.5,2.2 0.5,-0.4 0.5,0.9 0.5,0.8 0.5,-0.2 0.5,0.7 0.5,0.2 0.5,0.3 0.4,-0.2 0.5,1.2 0.5,0.2 0.5,-0.5 0.5,-0.5 0.5,-0.2 0.5,-0.6 0.5,-0.3 0.5,-0.2 0.5,0.4 0.5,-0.5 0.5,-0.1 0.5,-0.6 0.5,0.1 0.5,-0.2 0.5,-1.4 0.5,-0.3 0.5,-0.2 0.4,-1.3 0.5,0.3 0.5,-0.2 0.5,-0.3 0.5,-2.2 0.5,-0.4 0.5,-0.3 0.5,-0.3 0.5,-1.2 0.5,-0.1 0.5,-0.7 0.5,0.6 0.5,-1.2 0.5,-0.2 0.5,-0.1 0.5,0.1 0.5,-0.4 0.5,-0.4 0.5,-0.4 0.4,-0.8 0.5,2.3 0.5,-0.7 0.5,-0.1 0.5,-0.2 0.5,1.6 0.5,-1 0.5,0.7 0.5,5.5 0.5,3.8 0.5,-0.1 0.5,-2.1 0.5,-1.8 0.5,1.1 0.5,-2.9 0.5,-1.3 0.5,2.3 0.5,-1.8 0.4,0.4 0.5,-2 0.5,0.7 0.5,-0.4 0.5,-1 0.5,1.6 0.5,-2 0.5,0.4 0.5,-1 0.5,-0.2 0.5,-2 0.5,-0.5 0.5,1.1 0.5,-1.3 0.5,0.4 0.5,-0.8 0.5,0.3 0.5,-0.2 0.5,-0.3 0.4,-1 0.5,0.7 0.5,0.3 0.5,-0.9 0.5,-0.2 0.5,-0.7 0.5,-2.4 0.5,-0.5 0.5,0.9 0.5,-0.1 0.5,0.1 0.5,-0.2 0.5,-1.5 0.5,-1.6 0.5,0.9 0.5,1.4 0.5,-1.3 0.5,0.6 0.4,-1.5 0.5,1.2 0.5,-0.5 0.5,0.1 0.5,-1.1 0.5,1 0.5,0.3 0.5,1.4 0.5,1.4 0.5,-0.7 0.5,-1.6 0.5,1.7 0.5,-0.5 0.5,-0.7 0.5,0.3 0.5,1.1 0.5,-0.7 0.5,0.2 0.5,-0.7 0.4,0.5 0.5,-0.3 0.5,-0.4 0.5,0.3 0.5,0.3 0.5,-0.2 0.5,-0.2 0.5,0.6 0.5,0.4 0.5,-0.2 0.5,0.6 0.5,0 0.5,1.5 0.5,-0.1 0.5,-2.4 0.5,0.3 0.5,-0.8 0.5,-0.2 0.4,0.7 0.5,-0.4 0.5,-0.1 0.5,0.6 0.5,-2.8 0.5,0.2 0.5,0.2 0.5,1 0.5,-0.4 0.5,0.7 0.5,-0.1 0.5,0.3 0.5,-0.3 0.5,0.2 0.5,-0.8 0.5,-0.3 0.5,0.4 0.5,8 0.5,-0.3 0.4,0.2 0.5,0.3 0.5,-0.3 0.5,-0.2 0.5,0.1 0.5,0 0.5,-0.2 0.5,0.1 0.5,-0.4 0.5,0.5 0.5,0.4 0.5,0 0.5,-0.3 0.5,-0.3 0.5,1 0.5,-0.5 0.5,0.2 0.5,-0.3 0.4,0.5 0.5,-0.8 0.5,-0.3 0.5,-0.1 0.5,-0.7 0.5,-0.3 0.5,1 0.5,-1 0.5,0.5 0.5,-0.1 0.5,1.7 0.5,0.9 0.5,-0.2 0.5,-0.1 0.5,0.4 0.5,-0.3 0.5,0.3 0.5,-0.1 0.5,-0.9 0.4,-0.5 0.5,3.4 0.5,-1.3 0.5,1.8 0.5,0.8 0.5,-3.1 0.5,1 0.5,-0.8 0.5,1.3 0.5,-2.2 0.5,-0.1 0.5,2.2 0.5,-1.8 0.5,1.3 0.5,1.1 0.5,-1.5 0.5,-0.9 0.5,-0.8 0.4,-0.4 0.5,0.3 0.5,-0.3 0.5,-3.5 0.5,3.3 0.5,-0.9 0.5,-1 0.5,0.1 0.5,-1.4 0.5,0.8 0.5,-1.1 0.5,-1 0.5,0.2 0.5,0.3 0.5,1.1 0.5,-0.2 0.5,7.9 0.5,0 0.5,-1 0.4,0.5 0.5,0.1 0.5,0.2 0.5,0.1 0.5,-1.2 0.5,1.1 0.5,-0.1 0.5,0.5 0.5,2.6 0.5,-0.6 0.5,-2.1 0.5,-0.1 0.5,-1.2 0.5,2.3 0.5,-1 0.5,0.1 0.5,-2.4 0.5,1.8 0.4,-0.8 0.5,-0.9 0.5,0.4 0.5,0.4 0.5,-1.4 0.5,1.7 0.5,-3 0.5,-0.1 0.5,7 0.5,-0.8 0.5,-1.5 0.5,0.8 0.5,0.1 0.5,-1.8 0.5,0.9 0.5,0.7 0.5,0.7 0.5,-1.4 0.5,-1.4 0.4,2.4 0.5,-2.2 0.5,-1.3 0.5,-0.6 0.5,0.3 0.5,1.2 0.5,-0.1 0.5,0.1 0.5,0.9 0.5,-0.3 0.5,0.7 0.5,-0.8 0.5,0 0.5,-1 0.5,-0.1 0.5,-1.2 0.5,0.3 0.5,2.4 0.4,-1.3 0.5,-0.3 0.5,0.8 0.5,-0.8 0.5,0.5 0.5,-0.5 0.5,0.4 0.5,-0.1 0.5,-1.6 0.5,0.1 0.5,0.9 0.5,-0.2 0.5,0.2 0.5,0.3 0.5,0.7 0.5,-0.2 0.5,0.5 0.5,-1.6 0.5,0 0.4,-1.2 0.5,0.6 0.5,-1 0.5,-1.2 0.5,0.5 0.5,-0.6 0.5,-1.7 0.5,-0.7 0.5,-0.3 0.5,-2.9 0.5,-1 0.5,-0.7 0.5,0.7 0.5,-1.4 0.5,3.2 0.5,-1.1 0.5,0.2 0.5,1 0.4,-0.1 0.5,0.8 0.5,2.2 0.5,0.3 0.5,-1.1 0.5,0.7 0.5,0.2 0.5,0.5 0.5,3.8 0.5,-2.3 0.5,1.5 0.5,4.6 0.5,-0.6 0.5,0.7 0.5,-0.9 0.5,0.4 0.5,-0.9 0.5,0.9 0.5,1.1 0.4,0.5 0.5,1.7 0.5,2.6 0.5,0.8 0.5,52.1 0.5,-0.2 0.5,-0.2 0.5,-0.2 0.5,0.1 0.5,3 0.5,0.8 0.5,-0.2 0.5,-1 0.5,-19.9 0.5,-0.7 0.5,-4.1 0.5,-0.8 0.5,-1.7 0.4,-0.7 0.5,-1.6 0.5,0.6 0.5,-0.8 0.5,0 0.5,0.8 0.5,-1.7 0.5,2.2 0.5,2.4 0.5,1.4 0.5,1.1 0.5,3.2 0.5,-1.7 0.5,0.5 0.5,9.5 0.5,5.4 0.5,1.8 0.5,1.4 0.5,2.8 0.4,-0.9 0.5,0.3 0.5,0.5 0.5,-0.9 0.5,-0.2 0.5,-0.9 0.5,-0.3 0.5,-0.5 0.5,-0.9 0.5,0.2 0.5,0.2 0.5,-1.4 0.5,-0.4 0.5,-0.4 0.5,-0.6 0.5,-0.9 0.5,0.3 0.5,-0.5 0.4,-0.3 0.5,-1.5 0.5,-0.8 0.5,-0.6 0.5,-1 0.5,-0.7 0.5,-0.5 0.5,-0.8 0.5,-0.5 0.5,-0.1 0.5,-0.9 0.5,-0.4 0.5,-1.1 0.5,-0.7 0.5,0.2 0.5,-1.1 0.5,-0.7 0.5,-0.8 0.5,-0.6 0.4,-0.7 0.5,-0.5 0.5,-0.9 0.5,-0.2 0.5,-1.2 0.5,-0.3 0.5,-1.1 0.5,-0.9 0.5,0.6 0.5,-1.1 0.5,-0.7 0.5,-0.6 0.5,-1.8 0.5,-1.6 0.5,-0.6 0.5,-0.6 0.5,-1 0.5,-1.4 0.4,-0.3 0.5,-0.5 0.5,-1.8 0.5,-0.6 0.5,0.6 0.5,-1.5 0.5,0.1 0.5,-1.2 0.5,-2.8 0.5,-1.5 0.5,0.5 0.5,-0.8 0.5,-1 0.5,-0.7 0.5,-1.6 0.5,-0.4 0.5,-1.3 0.5,-0.9 0.5,-1 0.4,-0.7 0.5,-1 0.5,-1 0.5,-0.9 0.5,-1.3 0.5,-0.5 0.5,-0.9 0.5,-0.9 0.5,-0.5 0.5,-0.7 0.5,-1.1 0.5,-0.9 0.5,-0.8 0.5,-1.6 0.5,0.5 0.5,-1.6 0.5,-0.3 0.5,-0.9 0.4,-0.4 0.5,-1.4 0.5,-0.5 0.5,-1.1 0.5,-0.1 0.5,-0.5 0.5,-1 0.5,0.3 0.5,0.2 0.5,-0.3 0.5,0.3 0.5,2 0.5,2.5 0.5,0.5 0.5,0.4 0.5,-0.2 0.5,0.3 0.5,0.7 0.5,0.8 0.4,0.6 0.5,0.4 0.5,0.3 0.5,0.3 0.5,0.3 0.5,0.7 0.5,0.1 0.5,0.6 0.5,0.6 0.5,0.1 0.5,-0.4 0.5,-0.2 0.5,1.8 0.5,-0.5 0.5,0.6 0.5,0.3 0.5,0.4 0.5,0.4 0.4,0.4 0.5,1.3 0.5,0.9 0.5,0.5 0.5,0.5 0.5,0.7 0.5,0.4 0.5,0.6 0.5,-0.1 0.5,0.4 0.5,0.5 0.5,0.4 0.5,0.5 0.5,0.4 0.5,0.3 0.5,0.5 0.5,0.5 0.5,0.4 0.5,0.5 0.4,0.3 0.5,0.5 0.5,0.3 0.5,0.5 0.5,0.3 0.5,0.4 0.5,0.1 0.5,0.4 0.5,0.4 0.5,0.6 0.5,0.5 0.5,0.4 0.5,0.3 0.5,1.7 0.5,-0.1 0.5,-0.1 0.5,-0.9 0.5,0.2 0.4,-0.4 0.5,-0.3 0.5,-0.6 0.5,0.4 0.5,-0.5 0.5,0.9 0.5,0.1 0.5,-0.6 0.5,-0.5 0.5,0.1 0.5,-0.8 0.5,-0.8 0.5,-0.6 0.5,-0.7 0.5,-0.1 0.5,-0.4 0.5,-1.7 0.5,-0.7 0.5,-0.7 0.4,-0.2 0.5,-0.4 0.5,-1.7 0.5,0.7 0.5,1.2 0.5,-0.3 0.5,-1.1 0.5,0 0.5,-0.9 0.5,-0.8 0.5,-0.8 0.5,-0.3 0.5,-1.5 0.5,-0.9 0.5,-0.5 0.5,-1.1 0.5,-0.1 0.5,-0.6 0.4,-0.2 0.5,0.1 0.5,-0.7 0.5,-0.8 0.5,-0.4 0.5,-0.1 0.5,-1.6 0.5,0.8 0.5,-1.2 0.5,0.1 0.5,0.2 0.5,-1.5 0.5,0.3 0.5,0 0.5,0 0.5,0.1 0.5,0.9 0.5,0.6 0.5,0.8 0.4,0.1 0.5,0.6 0.5,0.3 0.5,0.4 0.5,0.7 0.5,0.5 0.5,0.8 0.5,0.4 0.5,0.6 0.5,0.3 0.5,0.8 0.5,0.7 0.5,0.9 0.5,0.7 0.5,1 0.5,0.6 0.5,0.6 0.5,0.9 0.4,1.8 0.5,2.6 0.5,0.9 0.5,1.1 0.5,0.2 0.5,2.8 0.5,0.7 0.5,1.7 0.5,0.6 0.5,1.5 0.5,13 0.5,-2.1 0.5,-1.9 0.5,2.4 0.5,-0.3 0.5,-0.9 0.5,0.6 0.5,0.5 0.5,-1.2 0.4,0.4 0.5,1.5 0.5,-0.5 0.5,-0.6 0.5,-0.4 0.5,0 0.5,-0.4 0.5,1.6 0.5,1 0.5,-0.1 0.5,-1.6 0.5,-0.4 0.5,2.3 0.5,-0.5 0.5,-4.6 0.5,-0.8 0.5,-0.5 0.5,-0.3 0.4,-0.2 0.5,-0.2 0.5,-1 0.5,-1 0.5,0.7 0.5,-1 0.5,0.1 0.5,-0.4 0.5,-0.9 0.5,-0.5 0.5,-0.4 0.5,-0.2 0.5,-0.2 0.5,-0.3 0.5,-0.1 0.5,-0.8 0.5,-0.6 0.5,0 0.5,-0.1 0.4,4.3 0.5,2.6 0.5,0.2 0.5,-0.2 0.5,-0.1 0.5,-1.2 0.5,-0.5 0.5,0.3 0.5,-0.8 0.5,0.2 0.5,0.2 0.5,-1.1 0.5,0.2 0.5,0.1 0.5,-0.1 0.5,0.2 0.5,-0.9 0.5,-0.6 0.4,-0.6 0.5,-4.3 0.5,-1.1 0.5,-1.2 0.5,-1.4 0.5,-0.9 0.5,1.4 0.5,-0.5 0.5,1.9 0.5,-0.3 0.5,-0.2 0.5,-0.6 0.5,0.2 0.5,3.9 0.5,0.9 0.5,0.3 0.5,-1.3 0.5,0 0.5,-2.7 0.4,-1.6 0.5,-0.3 0.5,-0.8 0.5,-0.9 0.5,-0.5 0.5,-1.6 0.5,-1.2 0.5,-0.3 0.5,-0.8 0.5,0.2 0.5,-1.1 0.5,1 0.5,-0.4 0.5,0.7 0.5,-0.1 0.5,-0.2 0.5,0.4 0.5,-0.9 0.4,0 0.5,1.5 0.5,-1.3 0.5,1.3 0.5,-0.8 0.5,1.1 0.5,0 0.5,-2.1 0.5,-1.4 0.5,0 0.5,-0.2 0.5,-1.4 0.5,0.5 0.5,0.5 0.5,-0.6 0.5,-0.4 0.5,-0.4 0.5,1 0.5,-0.1 0.4,0.3 0.5,0.5 0.5,-1 0.5,-1.3 0.5,0.7 0.5,0 0.5,-0.1 0.5,0.7 0.5,-0.8 0.5,0.2 0.5,0.3 0.5,-0.7 0.5,0.5 0.5,1 0.5,-0.2 0.5,0 0.5,30.1 0.5,-0.7 0.4,-23.7 0.5,0.7 0.5,-2.1 0.5,0.3 0.5,0.7 0.5,1 0.5,0.1 0.5,-0.9 0.5,-0.4 0.5,-0.9 0.5,0.7 0.5,-4.2 0.5,-0.1 0.5,0.1 0.5,-2.3 0.5,-0.1 0.5,2.6 0.5,0 0.5,-1.6 0.4,0.3 0.5,0 0.5,-0.8 0.5,-0.5 0.5,-0.6 0.5,-1.2 0.5,-0.6 0.5,-1.2 0.5,-1.2 0.5,0.3 0.5,-2 0.5,-0.3 0.5,-0.4 0.5,-0.4 0.5,-0.6 0.5,0.8 0.5,0.9 0.5,1.1 0.4,-2.5 0.5,0.2 0.5,0.4 0.5,0.7 0.5,0 0.5,0.1 0.5,-1 0.5,1.1 0.5,0.4 0.5,0.8 0.5,-1 0.5,-0.5 0.5,-2.1 0.5,1.1 0.5,0.3 0.5,-0.8 0.5,-0.2 0.5,-2 0.5,0.1 0.4,-0.3 0.5,-1.1 0.5,-0.8 0.5,-0.3 0.5,-1.2 0.5,0.2 0.5,0.3 0.5,-1.2 0.5,-1.1 0.5,-0.6 0.5,0.4 0.5,2.1 0.5,-0.8 0.5,0.1 0.5,1.5 0.5,0.5 0.5,0 0.5,1.2 0.4,1 0.5,-0.9 0.5,1 0.5,1.8 0.5,1 0.5,2.3 0.5,0.9 0.5,-1.2 0.5,1.8 0.5,1 0.5,2.6 0.5,-0.2 0.5,0 0.5,2.6 0.5,-2 0.5,1.8 0.5,-1.6 0.5,0.6 0.5,0.3 0.4,0.7 0.5,1.1 0.5,0.1 0.5,1.3 0.5,0.4 0.5,0.7 0.5,0.8 0.5,0.9 0.5,1.6 0.5,1.1 0.5,0.1 0.5,0.8 0.5,1.1 0.5,0.9 0.5,1.1 0.5,1 0.5,0.7 0.5,1.2 0.4,0.2 0.5,1.2 0.5,0.7 0.5,0.5 0.5,0.6 0.5,0.9 0.5,0.3 0.5,1.4 0.5,0.6 0.5,0.6 0.5,1.4 0.5,1.6 0.5,-0.8 0.5,-0.2 0.5,0.1 0.5,0.4 0.5,0.8 0.5,0.6 0.5,0.8 0.4,0.7 0.5,0.8 0.5,0.8 0.5,0.6 0.5,0.7 0.5,0.8 0.5,0.8 0.5,0.9 0.5,0.8 0.5,0.8 0.5,0.9 0.5,0.8 0.5,0.7 0.5,1 0.5,0.8 0.5,0.8 0.5,0.9 0.5,0.8 0.4,0.9 0.5,0.7 0.5,0.5 0.5,0.6 0.5,-0.2 0.5,0.7 0.5,0.7 0.5,0.7 0.5,0.6 0.5,0.7 h 0.01"
       id="path131"
       style="color:#00ffff;fill:none;stroke:#ff00ff;stroke-width:3;stroke-linecap:butt;stroke-linejoin:miter;stroke-opacity:0.82352941;display:inline"
       inkscape:connector-curvature="0" />
    <rect
       transform="translate(4.9596345e-5,0)"
       style="fill:#ff00ff;fill-opacity:0.82352941;stroke:none;display:inline"
       id="rect4357-9-5-6"
       width="496.01346"
       height="15.916283"
       x="211.01884"
       y="61.799416" />
    <text
       xml:space="preserve"
       style="font-size:15px;font-style:normal;font-variant:normal;font-weight:normal;font-stretch:normal;text-align:start;line-height:100%;letter-spacing:0px;word-spacing:0px;writing-mode:lr-tb;text-anchor:start;fill:#ffffff;fill-opacity:1;stroke:none;display:inline;font-family:Nimbus Sans L;-inkscape-font-specification:'Nimbus Sans L, Normal'"
       x="401.27869"
       y="76.953354"
       id="text4363-8-8-2"
       sodipodi:linespacing="100%"
       transform="matrix(1.0041355,0,0,0.99588133,4.5087587e-5,0)"><tspan
         sodipodi:role="line"
         id="tspan4365-7-0-0"
         x="401.27869"
         y="76.953354"
         style="font-size:20px">1000x range</tspan></text>
  </g>
</svg>
